EBGaramondSC12-Regular.sfdir
StartChar: quotesingle
Encoding: 39 39 42
Width: 178
VWidth: 0
Flags: HMW
LayerCount: 3
Fore
SplineSet
62 620 m 0
 62 634 73 648 81 655 c 0
 97 668 108 676 124 676 c 0
 134 676 138 661 138 644 c 0
 138 592 107 505 91 469 c 0
 86 457 77 444 72 444 c 0
 67 444 65 458 65 467 c 0
 66 488 66 506 66 524 c 0
 66 560 62 619 62 620 c 0
EndSplineSet
Validated: 1
Substitution2: "sups subtable" quotesingle.sups
Substitution2: "sinf subtable" quotesingle.sinf
Substitution2: "ordn subtable" quotesingle.ordn
Substitution2: "subs subtable" quotesingle.subs
EndChar
StartChar: period
Encoding: 46 46 15
Width: 230
VWidth: 0
Flags: HMW
LayerCount: 3
Fore
SplineSet
115 96 m 24
 145 96 170 71 170 41 c 24
 170 11 145 -14 115 -14 c 24
 85 -14 60 11 60 41 c 24
 60 71 85 96 115 96 c 24
EndSplineSet
Validated: 1
Substitution2: "sups subtable" period.sups
Substitution2: "sinf subtable" period.sinf
Substitution2: "ordn subtable" period.ordn
Substitution2: "subs subtable" period.subs
Position2: "rtbd subtable" dx=0 dy=0 dh=-161 dv=0
EndChar
StartChar: three
Encoding: 51 51 57
Width: 372
VWidth: 0
Flags: HMW
LayerCount: 3
Fore
SplineSet
181 413 m 0
 246 413 289 372 289 309 c 0
 289 277 273 212 195 167 c 0
 191 165 191 161 196 161 c 0
 288 159 319 97 319 53 c 0
 319 -68 234 -130 155 -169 c 0
 131 -181 98 -190 86 -190 c 0
 75 -190 59 -186 59 -176 c 0
 59 -164 74 -146 86 -146 c 0
 95 -146 136 -145 153 -136 c 0
 204 -109 243 -79 243 17 c 0
 243 49 231 112 157 112 c 0
 126 112 99 92 95 92 c 0
 87 92 78 94 78 101 c 16
 78 110 97 128 109 135 c 0
 131 148 150 160 179 186 c 0
 197 202 219 239 219 292 c 0
 219 330 194 358 155 358 c 0
 110 358 86 337 59 308 c 0
 56 304 48 300 43 300 c 8
 37 300 36 305 36 312 c 0
 36 333 104 413 181 413 c 0
EndSplineSet
Validated: 1
Substitution2: "'tnum' Tabular Numbers lookup 35 subtable" three.taboldstyle
Substitution2: "'lnum' Lining Figures lookup 33 subtable" three.lnum
Substitution2: "Single Substitution lookup 32 subtable" three.ordn
Substitution2: "Single Substitution lookup 31 subtable" three.subs
Substitution2: "sups subtable" three.sups
Substitution2: "sinf subtable" three.sinf
Substitution2: "ordn subtable" three.ordn
Substitution2: "subs subtable" three.subs
EndChar
StartChar: four
Encoding: 52 52 52
Width: 492
VWidth: 0
Flags: HMW
LayerCount: 3
Fore
SplineSet
266 104 m 2
 271 104 278 108 278 112 c 2
 278 281 l 2
 278 284 271 285 268 282 c 18
 116 113 l 2
 113.323477575 110.027420698 117 104 121 104 c 2
 266 104 l 2
311 377 m 2
 325.635067802 393.42604001 348 421 351 421 c 0
 357 421 354 414 354 409 c 8
 354 292 350 226 350 109 c 24
 350 106 352 103 355 103 c 16
 370 102 383 102 395 102 c 0
 414 102 432 103 454 104 c 0
 460 104 465 101 465 97 c 0
 465 81 451 53 444 53 c 0
 429 53 411 54 395 54 c 0
 383 54 372 53 364 52 c 0
 359 51 351 47 351 46 c 2
 351 -133 l 2
 351 -158 300 -181 293 -181 c 0
 285 -181 278 -178 278 -168 c 2
 278 41 l 2
 278 47 264 50 263 50 c 0
 181 50 139 44 34 43 c 0
 29 43 21 43 21 48 c 0
 21 49 24 55 25 56 c 2
 311 377 l 2
EndSplineSet
Substitution2: "'tnum' Tabular Numbers lookup 35 subtable" four.taboldstyle
Substitution2: "'lnum' Lining Figures lookup 33 subtable" four.lnum
Substitution2: "Single Substitution lookup 32 subtable" four.ordn
Substitution2: "Single Substitution lookup 31 subtable" four.subs
Substitution2: "sups subtable" four.sups
Substitution2: "sinf subtable" four.sinf
Substitution2: "ordn subtable" four.ordn
Substitution2: "subs subtable" four.subs
EndChar
StartChar: seven
Encoding: 55 55 53
Width: 460
VWidth: 0
Flags: HMW
LayerCount: 3
Fore
SplineSet
344 313 m 2
 346 318 349 322 334 323 c 0
 295 324 160 326 128 326 c 2
 115 326 l 2
 95 326 71 324 55 303 c 0
 50 297 38 281 29 281 c 0
 25 281 24 284 24 289 c 0
 24 296 27 306 28 311 c 0
 35 340 40 370 40 395 c 0
 40 405 47 406 50 406 c 0
 53 406 88 403 113 402 c 0
 142 401 180 401 220 401 c 0
 309 401 407 403 426 407 c 0
 430 407 433 398 433 393 c 0
 433 377 405 340 395 323 c 2
 115 -166 l 10
 109 -177 100 -193 96 -193 c 0
 81 -193 68 -182 68 -167 c 0
 68 -163 80 -142 89 -126 c 18
 344 313 l 2
EndSplineSet
Validated: 1
Substitution2: "'tnum' Tabular Numbers lookup 35 subtable" seven.taboldstyle
Substitution2: "'lnum' Lining Figures lookup 33 subtable" seven.lnum
Substitution2: "Single Substitution lookup 32 subtable" seven.ordn
Substitution2: "Single Substitution lookup 31 subtable" seven.subs
Substitution2: "sups subtable" seven.sups
Substitution2: "sinf subtable" seven.sinf
Substitution2: "ordn subtable" seven.ordn
Substitution2: "subs subtable" seven.subs
EndChar
StartChar: nine
Encoding: 57 57 55
Width: 466
VWidth: 0
Flags: HMW
LayerCount: 3
Fore
SplineSet
251 414 m 0
 348 414 426 328 426 210 c 0
 426 96 354 6 300 -47 c 0
 245 -101 124 -176 55 -186 c 1
 50 -186 l 2
 45 -186 41 -185 41 -181 c 8
 41 -174 48 -170 55 -168 c 0
 112 -150 228 -56 270 0 c 0
 306 48 346 114 346 227 c 0
 346 310 291 378 218 378 c 0
 153 378 122 316 122 267 c 0
 122 206 167 142 220 142 c 0
 261 142 275 156 300 168 c 0
 305 170 309 161 307 157 c 0
 300 144 285 130 274 122 c 0
 259 111 219 89 182 89 c 0
 113 89 53 143 53 215 c 0
 53 306 130 414 251 414 c 0
EndSplineSet
Validated: 1
Substitution2: "'tnum' Tabular Numbers lookup 35 subtable" nine.taboldstyle
Substitution2: "'lnum' Lining Figures lookup 33 subtable" nine.lnum
Substitution2: "Single Substitution lookup 32 subtable" nine.ordn
Substitution2: "Single Substitution lookup 31 subtable" nine.subs
Substitution2: "sups subtable" nine.sups
Substitution2: "sinf subtable" nine.sinf
Substitution2: "ordn subtable" nine.ordn
Substitution2: "subs subtable" nine.subs
EndChar
StartChar: semicolon
Encoding: 59 59 44
Width: 228
VWidth: 0
Flags: HMW
LayerCount: 3
Fore
SplineSet
36 -147 m 0
 24 -147 18 -142 18 -136 c 0
 18 -131 23 -126 32 -124 c 0
 75 -115 128 -85 128 -15 c 0
 128 1 111 27 89 29 c 0
 60 32 42 49 42 71 c 0
 42 98 68 117 97 117 c 0
 145 117 180 76 180 20 c 0
 180 -81 87 -147 36 -147 c 0
106 373 m 24
 136 373 161 348 161 318 c 24
 161 288 136 263 106 263 c 24
 76 263 51 288 51 318 c 24
 51 348 76 373 106 373 c 24
EndSplineSet
Validated: 1
Substitution2: "sups subtable" semicolon.sups
Substitution2: "sinf subtable" semicolon.sinf
Substitution2: "ordn subtable" semicolon.ordn
Substitution2: "subs subtable" semicolon.subs
Position2: "rtbd subtable" dx=0 dy=0 dh=-68 dv=0
EndChar
StartChar: g
Encoding: 103 103 1520
Width: 594
VWidth: 0
Flags: HMW
AnchorPoint: "below_accent" 308 -99 basechar 0
AnchorPoint: "top_accent" 324 615 basechar 0
LayerCount: 3
Fore
SplineSet
420 80 m 2
 420 124 l 2
 420 148 396 163 362 165 c 0
 348 166 334 174 334 184 c 0
 334 194 348 197 356 197 c 0
 389 197 412 194 450 194 c 8
 477 194 494 198 519 198 c 0
 530 198 544 193 544 184 c 8
 544 173 530 168 522 165 c 0
 507 159 495 150 495 130 c 2
 495 72 l 2
 495 46 516 42 516 34 c 0
 516 29 506 20 497 16 c 0
 478 7 425 -13 327 -13 c 0
 187 -14 60 83 60 222 c 0
 60 364 186 458 328 458 c 4
 385 458 426 451 468 437 c 0
 474 435 488 370 490 340 c 0
 490 334 485 320 477 320 c 0
 469 320 467 331 460 346 c 0
 435 399 394 427 315 427 c 0
 215 427 150 339 150 239 c 0
 150 126 227 17 340 17 c 0
 389 17 420 38 420 80 c 2
EndSplineSet
Validated: 33
Comment: "." 
EndChar
StartChar: q
Encoding: 113 113 1530
Width: 626
VWidth: 0
Flags: HMW
AnchorPoint: "top_accent" 308 615 basechar 0
LayerCount: 3
Fore
SplineSet
312 428 m 0
 208 428 150 339 150 241 c 0
 150 120 213 11 330 11 c 0
 437 11 476 121 476 220 c 0
 476 322 428 428 312 428 c 0
279 -35 m 0
 265 -25 239 -15 228 -13 c 0
 178 -1 60 90 60 207 c 0
 60 347 174 458 314 458 c 0
 441 458 566 373 566 247 c 0
 566 80 459 17 399 -7 c 0
 388 -11 376 -16 383 -23 c 0
 448 -84 582 -178 690 -178 c 0
 737 -178 766 -169 773 -169 c 0
 779 -169 787 -167 787 -173 c 0
 787 -185 778 -198 763 -204 c 0
 734 -215 709 -222 649 -222 c 0
 503 -222 416 -131 279 -35 c 0
EndSplineSet
Validated: 1
Substitution2: "Single Substitution lookup 98 subtable" q.longsc
Comment: "." 
EndChar
StartChar: u
Encoding: 117 117 1534
Width: 600
VWidth: 0
Flags: HMW
AnchorPoint: "cedilla" 338 8 basechar 0
AnchorPoint: "ogonek" 380 18 basechar 0
AnchorPoint: "below_accent" 316 -100 basechar 0
AnchorPoint: "top_accent" 313 615 basechar 0
LayerCount: 3
Fore
SplineSet
496 354 m 0
 496 303 496 293 496 231 c 8
 496 108 444 -14 299 -14 c 0
 160 -14 110 69 110 192 c 2
 110 352 l 2
 110 392 96 415 54 422 c 0
 42 424 30 431 30 441 c 0
 30 449 43 453 50 453 c 0
 89 453 113 448 149 448 c 0
 184 448 201 453 240 453 c 0
 247 453 260 449 260 441 c 0
 260 431 248 424 236 422 c 0
 194 415 185 392 185 352 c 2
 185 209 l 2
 185 88 228 31 320 31 c 0
 391 31 452 76 452 199 c 2
 452 352 l 2
 452 393 446 415 404 422 c 0
 392 424 380 431 380 441 c 0
 380 449 393 453 400 453 c 0
 439 453 436 448 472 448 c 0
 507 448 511 453 550 453 c 0
 557 453 570 449 570 441 c 0
 570 431 558 424 546 422 c 0
 504 415 496 388 496 354 c 0
EndSplineSet
Validated: 1
Position2: "Single Positioning lookup 106 subtable" dx=0 dy=0 dh=-10 dv=0
Substitution2: "Single Substitution lookup 42 subtable" u.LATsc
Comment: "." 
EndChar
StartChar: braceleft
Encoding: 123 123 959
Width: 373
VWidth: 0
Flags: HMW
LayerCount: 3
Fore
SplineSet
90 279 m 0
 123 270 196 213 196 147 c 16
 196 89 183 42 183 -26 c 16
 183 -99 248 -127 312 -127 c 16
 323 -127 338 -128 338 -139 c 16
 338 -148 329 -154 320 -154 c 8
 226 -154 118 -115 118 -21 c 8
 118 49 131 95 131 157 c 8
 131 215 90 253 36 273 c 8
 31 275 25 276 25 282 c 0
 25 288 31 286 36 288 c 16
 90 308 131 346 131 404 c 16
 131 466 118 512 118 582 c 16
 118 676 226 715 320 715 c 16
 329 715 338 709 338 700 c 8
 338 689 323 688 312 688 c 8
 248 688 183 660 183 587 c 8
 183 519 196 472 196 414 c 8
 196 348 130 300 88 283 c 0
 84 281 87 280 90 279 c 0
EndSplineSet
Validated: 1
Substitution2: "sups subtable" braceleft.sups
Substitution2: "sinf subtable" braceleft.sinf
Substitution2: "ordn subtable" braceleft.ordn
Substitution2: "subs subtable" braceleft.subs
EndChar
StartChar: bar
Encoding: 124 124 76
Width: 260
VWidth: 0
Flags: HMW
LayerCount: 3
Fore
SplineSet
100 676 m 14
 100 698 140 707 146 707 c 4
 153 707 160 701 160 694 c 22
 160 -265 l 14
 160 -286 121 -289 112 -289 c 4
 106 -289 100 -282 100 -275 c 22
 100 676 l 14
EndSplineSet
Validated: 1
Substitution2: "sups subtable" bar.sups
Substitution2: "sinf subtable" bar.sinf
Substitution2: "ordn subtable" bar.ordn
Substitution2: "subs subtable" bar.subs
EndChar
StartChar: dieresis
Encoding: 168 168 45
Width: 317
VWidth: 0
Flags: HMW
LayerCount: 3
Fore
SplineSet
247 574 m 0
 272 574 297 549 297 524 c 0
 297 499 272 474 247 474 c 0
 222 474 197 499 197 524 c 0
 197 549 222 574 247 574 c 0
70 574 m 0
 95 574 120 549 120 524 c 0
 120 499 95 474 70 474 c 0
 45 474 20 499 20 524 c 0
 20 549 45 574 70 574 c 0
EndSplineSet
Validated: 1
EndChar
StartChar: mu
Encoding: 181 181 1003
Width: 510
VWidth: 0
Flags: HMW
LayerCount: 3
Fore
SplineSet
420 64 m 16
 457 64 485 109 493 109 c 0
 498 109 504 105 504 100 c 0
 504 25 449 -15 406 -15 c 0
 373 -15 359 0 339 48 c 0
 337 54 328 93 326 114 c 1
 319 98 260 -13 210 -13 c 0
 162 -13 138 6 98 38 c 0
 88 46 77 62 70 62 c 0
 63 62 60 49 60 28 c 0
 60 -1 66 -43 72 -78 c 0
 85 -156 137 -236 137 -254 c 0
 137 -274 128 -285 109 -285 c 8
 77 -285 58 -265 46 -234 c 0
 37 -210 31 -75 31 0 c 0
 31 17 38 60 38 92 c 0
 38 125 31 288 31 332 c 0
 31 374 44 418 83 418 c 16
 112 418 122 391 122 343 c 0
 122 301 91 172 91 132 c 0
 91 106 125 50 169 50 c 16
 222 50 255 77 279 122 c 16
 317 195 317 252 317 332 c 0
 317 371 332 415 366 415 c 0
 400 415 405 374 405 352 c 0
 405 315 357 215 357 162 c 0
 357 125 375 64 420 64 c 16
EndSplineSet
Validated: 1
EndChar
StartChar: periodcentered
Encoding: 183 183 82
Width: 200
VWidth: 0
Flags: HMW
LayerCount: 3
Fore
SplineSet
100 260 m 24
 130 260 155 235 155 205 c 24
 155 175 130 150 100 150 c 24
 70 150 45 175 45 205 c 24
 45 235 70 260 100 260 c 24
EndSplineSet
Validated: 1
Substitution2: "Single Substitution lookup 4 subtable" periodcentered.CATuc
Substitution2: "Single Substitution lookup 3 subtable" periodcentered.CAT
EndChar
StartChar: questiondown
Encoding: 191 191 969
Width: 370
VWidth: 0
Flags: HMW
LayerCount: 3
Fore
SplineSet
205 374 m 24
 172 374 145 401 145 434 c 24
 145 467 172 494 205 494 c 24
 238 494 265 467 265 434 c 24
 265 401 238 374 205 374 c 24
245 -181 m 0
 212 -181 170 -164 137 -131 c 0
 81 -75 40 14 40 65 c 0
 40 114 64 149 84 160 c 0
 128 184 142 192 174 213 c 0
 202 231 203 244 204 276 c 0
 204 286 209 299 219 299 c 0
 226 299 237 286 241 270 c 0
 247 249 257 228 257 183 c 0
 257 149 219 125 156 93 c 0
 128 79 95 51 95 22 c 0
 95 -44 128 -92 196 -93 c 0
 215 -93 224 -89 243 -89 c 0
 264 -89 285 -118 285 -145 c 0
 285 -164 262 -181 245 -181 c 0
EndSplineSet
EndChar
StartChar: ccedilla
Encoding: 231 231 122
Width: 560
VWidth: 0
Flags: HM
LayerCount: 3
Back
SplineSet
164 -129 m 0
 163 -129 163 -129 162 -129 c 0
 154 -129 138 -118 149 -104 c 2
 220 -14 l 1
 215 -14 211 -14 206 -14 c 0
 105 -14 35 77 35 180 c 0
 35 303 123 413 246 413 c 0
 289 413 336 402 366 365 c 0
 379 349 361 333 346 323 c 0
 342 320 337 319 332 319 c 0
 323 319 313 324 308 329 c 0
 275 365 264 376 214 376 c 0
 141 376 104 299 104 226 c 0
 104 130 167 38 263 38 c 0
 305 38 325 54 351 88 c 0
 354 91 357 93 360 93 c 0
 367 93 374 85 372 77 c 0
 364 49 320 7 255 -8 c 1
 229 -43 l 2
 222 -52 231 -61 236 -63 c 0
 268 -77 297 -106 297 -139 c 0
 297 -219 208 -274 172 -274 c 0
 145 -274 139 -249 144 -224 c 0
 146 -217 152 -212 159 -215 c 0
 174 -221 186 -225 208 -225 c 0
 234 -225 247 -206 247 -180 c 0
 247 -144 215 -129 180 -127 c 0
 173 -127 169 -127 164 -129 c 0
EndSplineSet
Fore
Refer: 1540 807 N 1 0 0 1 251 0 2
Refer: 1516 99 N 1 0 0 1 0 0 3
Substitution2: "Smallcaps1 subtable" ccedilla.sc
MultipleSubs2: "CCMP_Precomp subtable" c uni0327
EndChar
StartChar: aogonek
Encoding: 261 261 146
Width: 549
VWidth: 0
Flags: HM
LayerCount: 3
Back
SplineSet
80 343 m 0xf4
 110 371 176 414 229 414 c 0
 277 414 312 372 311 325 c 2
 306 109 l 2xf4
 305 76 312 32 342 32 c 0
 360 32 371 36 382 46 c 0
 389 53 397 45 397 34 c 0
 397 31 373 6 352 -4 c 9
 316.51 -58.21 261 -108 261 -143 c 0
 261 -187 290 -202 313 -202 c 0
 341 -202 363 -187 372 -179 c 0
 376 -176 387 -185 385 -191 c 4
 376 -217 332 -262 282 -262 c 0
 240 -262 193 -241 193 -167 c 0xf8
 193 -108 241 -58 310 -14 c 1
 260 -9 252 38 244 38 c 0
 231 38 203 -13 121 -14 c 0
 80 -14 35 26 35 65 c 0
 35 107 59 135 108 155 c 2
 210 197 l 2
 236 208 237 210 238 237 c 2
 240 299 l 2
 241 334 218 365 181 365 c 0
 157 365 127 347 120 333 c 0
 117 328 116 321 116 314 c 0
 116 309 117 305 117 300 c 0
 117 286 61 265 48 265 c 0
 42 265 40 271 40 274 c 0
 40 295 55 321 80 343 c 0xf4
115 87 m 0
 115 49 145 32 164 32 c 0
 190 32 208 45 224 59 c 0
 231 65 236 74 236 99 c 1
 238 148 l 2
 239 163 235 168 227 168 c 0
 224 168 220 167 215 166 c 0
 139 144 115 110 115 87 c 0
EndSplineSet
Fore
Refer: 90 808 N 1 0 0 1 251 0 2
Refer: 1514 97 N 1 0 0 1 0 0 3
Substitution2: "Smallcaps1 subtable" aogonek.sc
MultipleSubs2: "CCMP_Precomp subtable" a uni0328
EndChar
StartChar: dcaron
Encoding: 271 271 156
Width: 603
VWidth: 0
Flags: HMW
LayerCount: 3
Back
SplineSet
422 94 m 0
 422 78 422 75 424 61 c 0
 425 52 432 44 441 46 c 0
 463 50 475 57 494 61 c 0
 504 63 507 32 497 30 c 0
 448 21 440 9 401 -14 c 0
 357 -19 l 0
 363 2 368 43 359 43 c 0
 352 43 352 46 338 32 c 0
 333 27 292 -14 226 -14 c 0
 112 -14 28 74 28 175 c 0
 28 317 110 416 260 414 c 0
 287 414 311 410 329 404 c 0
 338 401 351 391 351 425 c 0
 351 448 351 491 351 566 c 0
 351 581 336 632 302 639 c 8
 292 641 291 662 301 664 c 16
 353 676 389 692 421 704 c 0
 426 706 429 702 430 698 c 0
 430 686 423 652 423 562 c 0
 423 429 422 278 422 94 c 0
226 378 m 0
 187 378 109 335 109 201 c 0
 109 47 205 28 248 29 c 0
 303 30 349 59 352 107 c 0
 357 189 357 202 352 277 c 0
 348 333 287 378 226 378 c 0
458 657 m 0x2f
 458 678 490 705 511 705 c 0
 523 705 527 691 527 675 c 0
 527 638 505.844 573.913 488 537 c 0
 479.731 519.894 473 512 467 512 c 0
 463 512 460 522 460 535 c 0
 460 540 463 569 463 584 c 0
 463 621 458 641 458 657 c 0x2f
EndSplineSet
Fore
Refer: 2385 780 N 1 0 0 1 147 82 2
Refer: 1517 100 N 1 0 0 1 0 0 3
Substitution2: "Smallcaps1 subtable" dcaron.sc
MultipleSubs2: "cv82_decomp subtable" d uni030C.alt
MultipleSubs2: "CCMP_Precomp subtable" d uni030C.alt
EndChar
StartChar: Dcroat
Encoding: 272 272 941
Width: 754
VWidth: 0
Flags: HMW
LayerCount: 3
Fore
SplineSet
609 346 m 0
 609 503 502 628 345 628 c 0
 258 628 210 627 210 567 c 2
 210 353 l 1
 377 353 l 2
 383 353 391 348 391 342 c 0
 391 341 390 340 390 339 c 0
 383 326 374 317 359 317 c 2
 210 317 l 1
 210 121 l 2
 210 80 224 66 245 50 c 0
 269 32 292 28 317 28 c 0
 335 28 354 30 376 30 c 0
 529 30 609 193 609 346 c 0
371 -7 m 0
 351 -7 242 0 163 0 c 0
 123 0 111 -5 58 -5 c 0
 41 -5 29 -2 29 6 c 0
 29 15 39 20 62 24 c 0
 112 33 129 51 129 99 c 2
 129 317 l 1
 60 317 l 2
 51 317 46 329 46 335 c 0
 46 344 58 353 70 353 c 2
 129 353 l 1
 129 549 l 2
 129 597 112 613 62 622 c 0
 39 626 29 633 29 642 c 0
 29 650 41 653 58 653 c 0
 112 653 121 651 162 651 c 2
 169 651 l 2
 212 651 313 659 340 659 c 0
 611 659 704 530 704 335 c 0
 704 149 562 -7 371 -7 c 0
EndSplineSet
Validated: 1
Substitution2: "c2sc subtable" Dcroat.sc
Position2: "rtbd subtable" dx=0 dy=0 dh=-38 dv=0
EndChar
StartChar: uni013C
Encoding: 316 316 191
Width: 470
VWidth: 0
Flags: HM
LayerCount: 3
Back
SplineSet
155 62 m 0xf0
 155 35 178 30 198 24 c 0
 209 20 221 16 221 6 c 0
 221 -2 208 -3 201 -3 c 0
 162 -3 155 2 120 2 c 4
 85 2 78 -3 39 -3 c 0
 32 -3 19 -2 19 6 c 0
 19 16 31 20 42 24 c 0
 62 30 85 35 85 62 c 2
 85 566 l 2
 85 605 72 632 39 639 c 0
 34 640 31 646 31 652 c 0
 31 658 34 663 38 664 c 0
 89 676 122 692 154 704 c 0
 155 704 155 705 156 705 c 0
 159 705 162 701 162 698 c 0
 162 686 156 652 156 562 c 0
 156 389 155 260 155 62 c 0xf0
78 -275 m 0xe8
 70 -275 65 -271 65 -266 c 0
 65 -261 70 -256 79 -253 c 0
 118 -239 132 -202 132 -174 c 0
 132 -156 120 -149 102 -145 c 0
 79 -140 52 -122 52 -100 c 0
 52 -76 69 -57 98 -57 c 0
 146 -57 186 -98 186 -154 c 0
 186 -239 103 -275 78 -275 c 0xe8
EndSplineSet
Fore
Refer: 91 806 N 1 0 0 1 154 1 2
Refer: 1525 108 N 1 0 0 1 0 0 3
Substitution2: "Smallcaps1 subtable" uni013C.sc
MultipleSubs2: "CCMP_Precomp subtable" l uni0326
EndChar
StartChar: ldot
Encoding: 320 320 195
Width: 256
VWidth: 0
Flags: HMW
LayerCount: 3
Fore
SplineSet
155 62 m 2
 155 35 178 30 198 24 c 0
 209 20 221 16 221 6 c 0
 221 -2 208 -3 201 -3 c 0
 162 -3 155 2 120 2 c 0
 85 2 78 -3 39 -3 c 0
 32 -3 19 -2 19 6 c 0
 19 16 31 20 42 24 c 0
 62 30 85 35 85 62 c 2
 85 566 l 2
 85 605 72 632 39 639 c 0
 34 640 31 646 31 652 c 0
 31 658 34 663 38 664 c 0
 89 676 122 692 154 704 c 0
 155 704 155 705 156 705 c 0
 159 705 162 701 162 698 c 0
 162 686 155 652 155 562 c 2
 155 62 l 2
EndSplineSet
Refer: 2450 -1 S 1 0 0 1 241 0 2
Substitution2: "Smallcaps1 subtable" ldot.sc
LCarets2: 1 0 
EndChar
StartChar: lslash
Encoding: 322 322 1548
Width: 470
VWidth: 0
Flags: HMW
LayerCount: 3
Fore
SplineSet
35 151 m 0
 25 151 18 160 18 169 c 0
 18 176 22 185 33 191 c 2
 120 238 l 1
 120 352 l 2
 120 393 104 415 62 422 c 0
 50 424 38 431 38 441 c 0
 38 449 51 453 58 453 c 0
 97 453 122 448 158 448 c 0
 193 448 218 453 257 453 c 0
 264 453 277 449 277 441 c 0
 277 431 265 424 253 422 c 0
 211 415 195 393 195 352 c 2
 195 279 l 1
 275 323 l 2
 277 324 280 325 282 325 c 0
 288 325 293 322 293 317 c 2
 293 312 l 2
 293 296 292 289 275 280 c 2
 195 236 l 1
 195 78 l 2
 195 43 201 34 231 34 c 2
 329 34 l 2
 370 34 399 68 412 97 c 0
 414 101 421 112 430 112 c 0
 439 112 440 102 440 96 c 0
 437 69 424 32 418 10 c 0
 417 4 408 -2 401 -2 c 0
 302 -2 217 3 148 3 c 1
 112 2 89 -3 50 -3 c 0
 43 -3 30 1 30 9 c 0
 30 19 43 23 54 25 c 0
 89 32 120 43 120 79 c 2
 120 196 l 1
 40 152 l 2
 39 151 37 151 35 151 c 0
EndSplineSet
Validated: 1
Comment: "." 
EndChar
StartChar: eng
Encoding: 331 331 971
Width: 513
VWidth: 0
Flags: HMW
AnchorPoint: "below_accent" 278 -100 basechar 0
AnchorPoint: "top_accent" 271 550 basechar 0
LayerCount: 3
Fore
SplineSet
161 69 m 2
 161 41 183 30 203 24 c 0
 214 20 226 16 226 6 c 0
 226 -4 208 -3 203 -3 c 0
 164 -3 160 2 125 2 c 0
 90 2 86 -3 47 -3 c 0
 42 -3 24 -4 24 6 c 0
 24 16 36 20 47 24 c 0
 67 30 89 38 91 66 c 1
 92 113 92 154 92 191 c 0
 92 222 92 249 91 277 c 0
 89 313 84 342 50 349 c 0
 45 350 42 356 42 362 c 0
 42 367 44 373 49 374 c 0
 101 386 136 412 159 429 c 0
 160 430 160 430 161 430 c 0
 164 430 167 424 168 421 c 1
 168 411 161 373 161 356 c 0
 161 352 161 349 162 348 c 1
 181 367 268 414 331 414 c 0
 396 414 439 373 440 295 c 0
 440 260 443 177 443 90 c 0
 443 -16 439 -128 424 -173 c 0
 395 -259 336 -288 282 -288 c 0
 257 -288 240 -288 216 -278 c 0
 206 -274 189 -262 189 -255 c 0
 189 -239 204 -207 216 -207 c 0
 240 -207 248 -256 291 -256 c 0
 316 -256 348 -236 358 -201 c 0
 370 -160 373 -53 373 50 c 0
 373 148 370 242 370 272 c 0
 370 330 332 365 279 365 c 0
 245 365 211 353 186 334 c 0
 171 323 161 309 161 268 c 2
 161 69 l 2
EndSplineSet
Substitution2: "Smallcaps1 subtable" eng.sc
EndChar
StartChar: Tbar
Encoding: 358 358 944
Width: 670
VWidth: 0
Flags: HMW
AnchorPoint: "cedilla" 356 18 basechar 0
AnchorPoint: "below_accent" 334 -100 basechar 0
AnchorPoint: "top_accent" 341 700 basechar 0
LayerCount: 3
Fore
SplineSet
296 105 m 2
 296 362 l 1
 171 362 l 2
 162 362 157 374 157 380 c 0
 157 389 169 398 181 398 c 2
 296 398 l 1
 296 557 l 2
 296 575 294 597 278 600 c 0
 259 604 237 604 202 604 c 2
 157 604 l 2
 125 604 89 591 75 565 c 0
 69 554 49 527 34 527 c 0
 29 527 27 533 27 540 c 0
 27 546 29 554 32 560 c 0
 50 598 57 629 63 671 c 0
 66 693 75 694 80 694 c 0
 85 694 99 673 105 662 c 0
 113 648 147 643 175 642 c 0
 237 640 288 639 337 639 c 0
 406 639 471 641 558 645 c 0
 588 646 621 650 631 664 c 0
 642 679 651 686 658 686 c 0
 663 686 670 680 670 672 c 0
 670 634 654 592 654 557 c 2
 654 552 l 2
 654 542 650 527 641 527 c 2
 639 527 l 1
 627 529 624 549 620 558 c 0
 611 577 608 604 544 604 c 0
 492 604 410 602 392 600 c 0
 378 598 376 575 376 557 c 2
 376 398 l 1
 508 398 l 2
 515 398 524 391 521 384 c 0
 514 371 505 362 490 362 c 2
 376 362 l 1
 376 105 l 2
 376 54 405 33 455 24 c 0
 478 20 488 15 488 6 c 0
 488 -2 476 -5 459 -5 c 0
 405 -5 388 0 342 0 c 24
 292 0 268 -5 214 -5 c 0
 197 -5 185 -2 185 6 c 0
 185 15 195 20 218 24 c 0
 268 33 296 54 296 105 c 2
EndSplineSet
Validated: 1
Substitution2: "c2sc subtable" Tbar.sc
Position2: "Single Positioning lookup 67 subtable" dx=0 dy=0 dh=170 dv=0
Position2: "Single Positioning lookup 66 subtable" dx=0 dy=0 dh=135 dv=0
Position2: "Single Positioning lookup 65 subtable" dx=0 dy=0 dh=115 dv=0
Position2: "Single Positioning lookup 64 subtable" dx=0 dy=0 dh=100 dv=0
Position2: "Single Positioning lookup 63 subtable" dx=0 dy=0 dh=80 dv=0
Position2: "Single Positioning lookup 62 subtable" dx=0 dy=0 dh=50 dv=0
Position2: "Single Positioning lookup 61 subtable" dx=0 dy=0 dh=95 dv=0
Position2: "Single Positioning lookup 60 subtable" dx=0 dy=0 dh=60 dv=0
Position2: "Single Positioning lookup 59 subtable" dx=0 dy=0 dh=40 dv=0
Position2: "Single Positioning lookup 58 subtable" dx=0 dy=0 dh=25 dv=0
Position2: "Single Positioning lookup 57 subtable" dx=0 dy=0 dh=60 dv=0
Position2: "Single Positioning lookup 56 subtable" dx=0 dy=0 dh=25 dv=0
Position2: "Single Positioning lookup 55 subtable" dx=0 dy=0 dh=10 dv=0
Position2: "Single Positioning lookup 54 subtable" dx=0 dy=0 dh=180 dv=0
Position2: "Single Positioning lookup 53 subtable" dx=0 dy=0 dh=145 dv=0
Position2: "Single Positioning lookup 52 subtable" dx=0 dy=0 dh=125 dv=0
Position2: "Single Positioning lookup 51 subtable" dx=0 dy=0 dh=110 dv=0
Position2: "Single Positioning lookup 50 subtable" dx=0 dy=0 dh=90 dv=0
Position2: "Single Positioning lookup 49 subtable" dx=0 dy=0 dh=60 dv=0
Position2: "Single Positioning lookup 48 subtable" dx=0 dy=0 dh=80 dv=0
Position2: "Single Positioning lookup 47 subtable" dx=0 dy=0 dh=80 dv=0
Position2: "Single Positioning lookup 46 subtable" dx=0 dy=0 dh=100 dv=0
Position2: "Single Positioning lookup 45 subtable" dx=0 dy=0 dh=115 dv=0
Position2: "Single Positioning lookup 44 subtable" dx=0 dy=0 dh=115 dv=0
Position2: "Single Positioning lookup 43 subtable" dx=0 dy=0 dh=100 dv=0
Position2: "Single Positioning lookup 42 subtable" dx=0 dy=0 dh=100 dv=0
Position2: "Single Positioning lookup 41 subtable" dx=0 dy=0 dh=120 dv=0
Position2: "Single Positioning lookup 40 subtable" dx=0 dy=0 dh=135 dv=0
Position2: "Single Positioning lookup 39 subtable" dx=0 dy=0 dh=135 dv=0
EndChar
StartChar: uni0182
Encoding: 386 386 1674
Width: 568
VWidth: 0
Flags: HMW
LayerCount: 3
Fore
SplineSet
38 -5 m 0
 21 -5 9 -2 9 6 c 0
 9 15 19 20 42 24 c 0
 92 33 120 51 120 98 c 2
 120 550 l 2
 120 597 103 613 53 622 c 0
 30 626 20 633 20 642 c 0
 20 650 32 653 49 653 c 0
 103 653 120 650 166 650 c 18
 414 650 l 2
 417 650 447 655 453 655 c 0
 460 655 463 645 463 641 c 0
 464 598 471 573 471 540 c 0
 471 526 462 519 457 519 c 0
 450 519 435 536 433 547 c 0
 429 570 420 611 361 611 c 2
 229 611 l 2
 218 611 200 588 200 576 c 2
 200 408 l 2
 200 376 201 358 212 358 c 0
 214 358 215 358 217 359 c 0
 241 367 273 376 324 376 c 0
 445 376 523 310 523 194 c 0
 523 84 459 51 423 30 c 0
 383 6 329 -4 263 -4 c 0
 243 -4 187 4 143 4 c 0
 101 4 92 -5 38 -5 c 0
200 108 m 2
 200 63 228 37 277 37 c 0
 355 37 433 103 433 189 c 0
 433 266 386 303 359 318 c 0
 341 328 305 343 255 343 c 0
 225 343 200 335 200 307 c 2
 200 108 l 2
EndSplineSet
Validated: 1
EndChar
StartChar: uni0185
Encoding: 389 389 1984
Width: 515
VWidth: 0
Flags: HMW
LayerCount: 3
Back
SplineSet
120 -41 m 0
 110 -41 97 -50 92 -54 c 0
 84 -59 66 -52 68 -44 c 4
 72 -15 75 26 75 51 c 2
 75 512 l 2
 75 547 61 578 28 585 c 8
 18 587 18 608 27 610 c 16
 78 622 108 638 140 650 c 0
 141 650 141 651 142 651 c 0
 145 651 148 647 148 644 c 0
 148 639 145 595 145 539 c 2
 145 334 l 2
 145 313 145 302 154 301 c 1
 200 352 266 360 300 360 c 0
 404 360 480 271 480 163 c 0
 480 46 408 -68 257 -68 c 0
 195 -68 134 -41 120 -41 c 0
282 -37 m 0
 358 -37 404 38 405 138 c 0
 406 215 361 319 265 319 c 0
 237 319 188 308 166 284 c 0
 152 269 145 252 145 199 c 2
 145 78 l 2
 145 8 212 -37 282 -37 c 0
EndSplineSet
Fore
SplineSet
75 105 m 2
 75 498 l 2
 75 601 19 574 19 596 c 0
 19 611 34 615 41 622 c 0
 79 657 127 705 142 705 c 0
 145 705 155 693 155 690 c 0
 155 685 145 649 145 593 c 2
 145 388 l 2
 145 367 145 356 154 355 c 1
 204 397 266 414 300 414 c 0
 404 414 480 325 480 217 c 0
 480 100 410 -14 259 -14 c 0
 197 -14 127 15 113 15 c 0
 101 15 89 -3 84 -3 c 0
 76 -3 68 3 68 9 c 0
 68 11 75 52 75 105 c 2
282 17 m 0
 358 17 405 94 405 195 c 0
 405 272 360 373 265 373 c 0
 237 373 188 362 166 338 c 0
 152 323 145 306 145 253 c 2
 145 132 l 2
 145 62 212 17 282 17 c 0
EndSplineSet
Validated: 1
EndChar
StartChar: uni0187
Encoding: 391 391 1769
Width: 660
VWidth: 0
Flags: HMW
LayerCount: 3
Fore
SplineSet
607 603 m 0
 608 576 612 546 613 494 c 0
 614 485 612 470 602 471 c 0
 591 472 580 485 576 508 c 1
 571 548 553 570 541 581 c 0
 531 591 486 632 394 632 c 8
 246.66015625 632 146 494 146 347 c 8
 146 184.282226562 244 16 400 16 c 0
 512 16 560 86 586 137 c 0
 592 148 606 152 611 156 c 0
 612 157 612 157 613 157 c 0
 617 157 620 147 620 138 c 0
 620 135 619 132 619 130 c 0
 615 105 601 49 586 26 c 0
 581 18 561 16 537 5 c 0
 503 -11 429 -15 369 -15 c 8
 186.66796875 -15 46 141 46 323 c 0
 46 517 216 663 410 663 c 0
 442 663 498 657 516 651 c 0
 518 650 550 639 566 639 c 0
 571 639 574 640 575 643 c 0
 591 704 639 725 681 725 c 0
 714 725 739 712 752 696 c 0
 758 689 760 683 760 677 c 0
 760 655 742 645 723 645 c 0
 696 645 700 683 651 683 c 4
 629 683 624 670 615 657 c 4
 610.411132812 650.37109375 609.599609375 640.499023438 607 634 c 4
 605 629 606.851953358 606.997259335 607 603 c 0
EndSplineSet
Validated: 1
EndChar
StartChar: uni018D
Encoding: 397 397 1836
Width: 481
VWidth: 0
Flags: HMW
LayerCount: 3
Fore
SplineSet
275 -5 m 0
 328 -50 391 -77 391 -145 c 0
 391 -204 332 -247 269 -255 c 0
 219 -261 174 -264 152 -264 c 0
 88 -264 88 -266 68 -280 c 0
 67 -281 55 -287 54 -287 c 0
 50 -287 48 -278 48 -274 c 0
 48 -248 103 -188 161 -188 c 0
 213 -188 242 -200 297 -200 c 0
 332 -200 352 -188 352 -169 c 0
 352 -133 261 -93 195 -43 c 0
 116 17 35 81 35 187 c 0
 35 304 109 414 259 414 c 0
 343 414 446 331 446 213 c 0
 446 122 381 36 275 4 c 0
 269 2 271 -2 275 -5 c 0
117 209 m 0
 117 110 211 23 254 23 c 0
 282 23 312 45 332 71 c 0
 354 99 364 143 364 190 c 0
 364 283 306 384 238 384 c 0
 196 384 163 363 144 332 c 0
 126 303 117 258 117 209 c 0
EndSplineSet
EndChar
StartChar: florin
Encoding: 402 402 1716
Width: 317
VWidth: 0
Flags: HMW
LayerCount: 3
Fore
SplineSet
162 478 m 2
 162 422 l 2
 162 404 174 400 187 400 c 10
 305 400 l 18
 308 400 309 395 309 389 c 0
 309 375 303 352 296 352 c 10
 202 352 l 18
 166 352 162 345 162 335 c 2
 162 82 l 2
 162 -21 158 -128 143 -173 c 0
 114 -259 55 -288 1 -288 c 0
 -39 -288 -97 -272 -97 -249 c 0
 -97 -219 -81 -193 -59 -193 c 0
 -35 -193 -27 -251 16 -251 c 0
 41 -251 68 -234 78 -199 c 0
 90 -158 90 -43 90 60 c 2
 90 350 l 1
 77 350 59 350 38 352 c 0
 32 353 23 374 31 376 c 0
 61 384 70 392 89 402 c 1
 89 633 222 706 309 706 c 0
 354 706 374 705 403 681 c 16
 414 672 419 659 419 646 c 0
 419 624 403 606 385 606 c 0
 358 606 344 665 267 665 c 0
 205 665 162 610 162 478 c 2
EndSplineSet
Validated: 1
Position2: "Single Positioning lookup 111 subtable" dx=0 dy=0 dh=80 dv=0
Position2: "Single Positioning lookup 110 subtable" dx=0 dy=0 dh=75 dv=0
Position2: "Single Positioning lookup 109 subtable" dx=0 dy=0 dh=95 dv=0
Position2: "Single Positioning lookup 108 subtable" dx=0 dy=0 dh=95 dv=0
Position2: "Single Positioning lookup 107 subtable" dx=0 dy=0 dh=25 dv=0
EndChar
StartChar: uni01A4
Encoding: 420 420 1788
Width: 595
VWidth: 0
Flags: HMW
LayerCount: 3
Fore
SplineSet
351 254 m 0
 335 254 301 257 301 269 c 0
 301 275 308 280 315 280 c 2
 317 280 l 1
 324 279 330 279 337 279 c 0
 372 279 408 291 429 307 c 0
 476 343 492 407 492 467 c 0
 492 577 392 625 317 625 c 0
 279 625 253 616 253 586 c 2
 253 111 l 2
 253 63 270 33 320 24 c 0
 343 20 353 15 353 6 c 0
 353 -2 341 -5 324 -5 c 0
 270 -5 264 2 226 2 c 24
 175 2 150 -5 96 -5 c 0
 79 -5 67 -2 67 6 c 0
 67 15 77 20 100 24 c 0
 150 33 173 51 173 100 c 2
 173 548 l 2
 173 597 169 613 139 613 c 0
 109 613 71 582 71 557 c 0
 71 524 105 525 105 502 c 0
 105 478 75 459 59 459 c 0
 32 459 5 495 5 532 c 0
 5 622 140 657 275 657 c 0
 350 657 446 646 479 629 c 0
 514 611 580 570 580 484 c 0
 580 439 561 358 506 304 c 0
 465 264 399 254 351 254 c 0
EndSplineSet
Validated: 1
EndChar
StartChar: uni01AA
Encoding: 426 426 2488
Width: 224
VWidth: 0
Flags: HMW
LayerCount: 3
Fore
SplineSet
-90 625 m 0
 -90 678 -33 706 20 706 c 0
 78 706 114 663 132 592 c 1
 152 597 170 604 185 612 c 0
 199 619 205 601 205 593 c 0
 205 587 176 575 138 565 c 1
 143 535 145 502 145 465 c 2
 145 -45 l 2
 145 -211 169 -260 213 -260 c 0
 249 -260 263 -238 263 -219 c 0
 263 -201 305 -169 326 -169 c 0
 334 -169 335 -182 335 -195 c 0
 335 -258 272 -288 193 -288 c 0
 115 -288 75 -211 75 -104 c 2
 75 500 l 2
 75 519 74 536 72 552 c 1
 56 550 41 549 27 549 c 0
 -26 549 -90 572 -90 625 c 0
68 582 m 1
 57 642 33 676 2 676 c 0
 -20 676 -39 659 -39 637 c 0
 -39 599 3 581 41 581 c 0
 50 581 59 581 68 582 c 1
EndSplineSet
Validated: 1
EndChar
StartChar: uni01AB
Encoding: 427 427 1790
Width: 314
VWidth: 0
Flags: HMW
LayerCount: 3
Fore
SplineSet
189 -14 m 0
 127 -14 85 22 85 105 c 2
 85 337 l 2
 85 349 78 352 47 352 c 0
 43 352 35 365 35 372 c 0
 35 375 38 378 40 379 c 0
 93 394 134 468 144 468 c 0
 150 468 158 467 158 458 c 2
 156 414 l 2
 156 405 167 400 180 400 c 2
 294 400 l 2
 299 400 304 388 304 376 c 0
 304 364 299 352 294 352 c 2
 195 352 l 2
 161 352 155 351 155 324 c 2
 155 135 l 2
 155 61 190 41 221 41 c 0
 260 41 280 48 296 60 c 0
 302 64 306 55 306 47 c 0
 306 -14 299 -128 284 -173 c 0
 255 -259 196 -288 142 -288 c 0
 102 -288 44 -272 44 -249 c 0
 44 -219 60 -193 82 -193 c 0
 106 -193 114 -251 157 -251 c 0
 182 -251 209 -234 219 -199 c 0
 230 -162 234 -95 234 -6 c 1
 220 -11 204 -14 189 -14 c 0
EndSplineSet
Validated: 1
EndChar
StartChar: uni01AC
Encoding: 428 428 1791
Width: 670
VWidth: 0
Flags: HMW
LayerCount: 3
Fore
SplineSet
227 643 m 2
 556 642 l 2
 585 642 604 649 614 656 c 0
 634 670 649 692 664 692 c 0
 668 692 671 679 671 669 c 0
 671 666 670 662 670 660 c 0
 661 623 654 587 654 561 c 0
 654 557 654 553 654 549 c 0
 654 537 648 517 638 517 c 0
 628 517 624 532 619 558 c 0
 614 586 591 604 527 604 c 0
 475 604 410 602 392 600 c 0
 378 598 376 575 376 557 c 2
 376 102 l 2
 376 54 405 33 455 24 c 0
 478 20 488 15 488 6 c 0
 488 -2 476 -5 459 -5 c 0
 405 -5 388 0 342 0 c 24
 292 0 268 -5 214 -5 c 0
 197 -5 185 -2 185 6 c 0
 185 15 195 20 218 24 c 0
 268 33 296 54 296 102 c 2
 296 557 l 2
 296 575 294 597 278 600 c 0
 259 604 238 604 204 604 c 2
 142 604 l 2
 112 604 74 574 74 549 c 0
 74 516 108 517 108 494 c 0
 108 470 78 451 62 451 c 0
 35 451 8 487 8 524 c 0
 8 614 93 643 227 643 c 2
EndSplineSet
Validated: 1
Position2: "Single Positioning lookup 67 subtable" dx=0 dy=0 dh=170 dv=0
Position2: "Single Positioning lookup 66 subtable" dx=0 dy=0 dh=135 dv=0
Position2: "Single Positioning lookup 65 subtable" dx=0 dy=0 dh=115 dv=0
Position2: "Single Positioning lookup 64 subtable" dx=0 dy=0 dh=100 dv=0
Position2: "Single Positioning lookup 63 subtable" dx=0 dy=0 dh=80 dv=0
Position2: "Single Positioning lookup 62 subtable" dx=0 dy=0 dh=50 dv=0
Position2: "Single Positioning lookup 61 subtable" dx=0 dy=0 dh=95 dv=0
Position2: "Single Positioning lookup 60 subtable" dx=0 dy=0 dh=60 dv=0
Position2: "Single Positioning lookup 59 subtable" dx=0 dy=0 dh=40 dv=0
Position2: "Single Positioning lookup 58 subtable" dx=0 dy=0 dh=25 dv=0
Position2: "Single Positioning lookup 57 subtable" dx=0 dy=0 dh=60 dv=0
Position2: "Single Positioning lookup 56 subtable" dx=0 dy=0 dh=25 dv=0
Position2: "Single Positioning lookup 55 subtable" dx=0 dy=0 dh=10 dv=0
Position2: "Single Positioning lookup 54 subtable" dx=0 dy=0 dh=180 dv=0
Position2: "Single Positioning lookup 53 subtable" dx=0 dy=0 dh=145 dv=0
Position2: "Single Positioning lookup 52 subtable" dx=0 dy=0 dh=125 dv=0
Position2: "Single Positioning lookup 51 subtable" dx=0 dy=0 dh=110 dv=0
Position2: "Single Positioning lookup 50 subtable" dx=0 dy=0 dh=90 dv=0
Position2: "Single Positioning lookup 49 subtable" dx=0 dy=0 dh=60 dv=0
Position2: "Single Positioning lookup 48 subtable" dx=0 dy=0 dh=80 dv=0
Position2: "Single Positioning lookup 47 subtable" dx=0 dy=0 dh=80 dv=0
Position2: "Single Positioning lookup 46 subtable" dx=0 dy=0 dh=100 dv=0
Position2: "Single Positioning lookup 45 subtable" dx=0 dy=0 dh=115 dv=0
Position2: "Single Positioning lookup 44 subtable" dx=0 dy=0 dh=115 dv=0
Position2: "Single Positioning lookup 43 subtable" dx=0 dy=0 dh=100 dv=0
Position2: "Single Positioning lookup 42 subtable" dx=0 dy=0 dh=100 dv=0
Position2: "Single Positioning lookup 41 subtable" dx=0 dy=0 dh=120 dv=0
Position2: "Single Positioning lookup 40 subtable" dx=0 dy=0 dh=135 dv=0
Position2: "Single Positioning lookup 39 subtable" dx=0 dy=0 dh=135 dv=0
EndChar
StartChar: uni01BA
Encoding: 442 442 1973
Width: 391
Flags: HMW
LayerCount: 3
Fore
SplineSet
172 -109 m 0
 238 -109 302 -93 302 -21 c 0
 302 53 260 94 200 94 c 0
 169 94 130 83 116 83 c 0
 102 83 112 100 111 101 c 1
 114 109 126 131 138 151 c 2
 262 354 l 2
 265 358 268 363 253 364 c 0
 222 365 190 368 159 368 c 0
 152 368 144 367 137 367 c 0
 117 366 86 337 66 311 c 0
 61 305 49 286 39 286 c 0
 30 286 34 300 38 308 c 0
 46 327 50 380 50 405 c 0
 50 415 56 416 60 416 c 0
 63 416 69 412 75 407 c 0
 80 403 104 402 123 402 c 2
 195 402 l 2
 257 402 311 403 364 404 c 0
 369 404 373 396 371 392 c 0
 361 374 354 363 341 343 c 0
 289 263 262 218 216 133 c 0
 211 123 217 120 225 120 c 0
 232 120 240 122 242 122 c 0
 312 122 387 101 387 15 c 0
 387 -101 285 -145 171 -145 c 0
 115 -145 100 -166 100 -201 c 0
 100 -238 146 -261 188 -261 c 0
 243 -261 288.15234375 -245.231445312 311 -230 c 0
 335 -214 340 -186 354 -186 c 0
 362 -186 362 -192 362 -197 c 0
 362 -250 292 -289 168 -289 c 0
 104 -289 25 -275 25 -211 c 0
 25 -141 94 -109 172 -109 c 0
EndSplineSet
Validated: 1
EndChar
StartChar: uni01C1
Encoding: 449 449 542
Width: 230
VWidth: 0
Flags: HMW
LayerCount: 3
Fore
SplineSet
40 673 m 10
 40 690 65 704 71 704 c 0
 78 704 85 698 85 691 c 18
 85 10 l 10
 85 -6 61 -14 52 -14 c 0
 46 -14 40 -7 40 0 c 18
 40 673 l 10
145 673 m 10
 145 690 170 704 176 704 c 0
 183 704 190 698 190 691 c 18
 190 10 l 10
 190 -6 166 -14 157 -14 c 0
 151 -14 145 -7 145 0 c 18
 145 673 l 10
EndSplineSet
Validated: 1
EndChar
StartChar: uni01E4
Encoding: 484 484 1797
Width: 729
VWidth: 0
Flags: HMW
LayerCount: 3
Fore
SplineSet
621 624 m 0
 627 582 632 538 632 512 c 0
 632 502 625 492 617 492 c 0
 603 492 598 507 594 519 c 0
 586 540 579 553 563 572 c 0
 550 588 499 625 404 625 c 0
 249 625 144 482 144 324 c 0
 144 134 273 23 406 23 c 0
 483 23 516 48 528 60 c 0
 542 74 556 98 558 129 c 1
 383 129 l 2
 376 129 369 135 369 141 c 0
 369 150 377 173 393 173 c 2
 559 173 l 1
 559 181 560 188 560 195 c 0
 560 209 559 220 555 225 c 0
 538 247 477 256 457 256 c 0
 452 256 437 263 437 273 c 0
 437 283 452 290 457 290 c 0
 506 290 528 286 583 286 c 0
 618 286 636 290 672 290 c 0
 677 290 693 287 693 274 c 0
 693 265 677 257 672 256 c 0
 643 248 634 234 630 207 c 0
 628 195 627 183 626 173 c 1
 683 173 l 2
 689 173 696 167 696 161 c 0
 696 141 682 129 665 129 c 2
 625 129 l 1
 625 105 l 2
 625 98 628 95 631 89 c 0
 635 82 644 77 644 72 c 0
 644 67 644 55 630 53 c 0
 610 50 519 -14 392 -14 c 0
 207 -14 45 126 45 311 c 0
 45 509 214 663 413 663 c 0
 463 663 619 639 621 624 c 0
EndSplineSet
Validated: 1
Position2: "lfbd subtable" dx=-36 dy=0 dh=-36 dv=0
EndChar
StartChar: uni01F2
Encoding: 498 498 555
Width: 1131
VWidth: 0
Flags: HMW
LayerCount: 3
Fore
SplineSet
1010 35 m 2
 1040 35 1066 69 1096 112 c 0
 1099 117 1106 136 1118 136 c 0
 1127 136 1126 117 1126 113 c 0
 1126 105 1103 25 1098 9 c 0
 1097 4 1090 -5 1084 -5 c 0
 1055 -5 982 0 873 0 c 0
 845 0 810 -5 793 -5 c 0
 788 -5 779 7 779 12 c 0
 779 17 802 51 816 70 c 0
 883 166 929 238 1002 354 c 0
 1005 358 1008 364 993 364 c 2
 876 364 l 2
 858 364 844 337 824 311 c 0
 819 305 807 286 797 286 c 0
 788 286 787 300 791 308 c 0
 799 327 808 373 808 398 c 0
 808 408 819 416 823 416 c 0
 826 416 832 412 838 407 c 0
 844 402 863 401 881 401 c 0
 896 401 910 402 919 402 c 0
 988 402 1044 403 1105 405 c 0
 1110 405 1115 397 1112 393 c 0
 1098 376 1088 363 1074 343 c 2
 881 50 l 2
 876 42 887 35 893 35 c 2
 1010 35 l 2
EndSplineSet
Refer: 19 68 N 1 0 0 1 0 0 2
Validated: 1
EndChar
StartChar: uni01F3
Encoding: 499 499 556
Width: 883
VWidth: 0
Flags: HM
LayerCount: 3
Fore
SplineSet
762 35 m 2
 792 35 818 69 848 112 c 0
 851 117 858 136 870 136 c 0
 879 136 878 117 878 113 c 0
 878 105 855 25 850 9 c 0
 849 4 842 -5 836 -5 c 0
 807 -5 734 0 625 0 c 0
 597 0 562 -5 545 -5 c 0
 540 -5 531 7 531 12 c 0
 531 17 554 51 568 70 c 0
 635 166 681 238 754 354 c 0
 757 358 760 364 745 364 c 2
 628 364 l 2
 610 364 596 337 576 311 c 0
 571 305 559 286 549 286 c 0
 540 286 539 300 543 308 c 0
 551 327 560 373 560 398 c 0
 560 408 571 416 575 416 c 0
 578 416 584 412 590 407 c 0
 596 402 615 401 633 401 c 0
 648 401 662 402 671 402 c 0
 740 402 796 403 857 405 c 0
 862 405 867 397 864 393 c 0
 850 376 840 363 826 343 c 2
 633 50 l 2
 628 42 639 35 645 35 c 2
 762 35 l 2
338 393 m 0
 342 388 346 384 348 384 c 0
 351 384 352 390 352 408 c 2
 352 566 l 2
 352 620 335 632 301 639 c 0
 296 640 293 646 293 652 c 0
 293 657 295 663 300 664 c 0
 373 681 408 704 422 704 c 0
 426 704 428 702 429 698 c 1
 429 686 422 652 422 562 c 2
 422 110 l 2
 422 68 427 45 443 45 c 0
 453 45 479 46 489 48 c 0
 494 49 504 47 504 35 c 0
 504 24 495 21 490 21 c 0
 438 14 402 -1 373 -13 c 0
 369 -15 355 -19 349 -19 c 0
 345 -19 346 -18 346 -15 c 0
 346 -2 351 34 351 51 c 2
 351 57 l 1
 331 26 286 -14 220 -14 c 0
 106 -14 35 89 35 190 c 0
 35 306 120 414 260 414 c 0
 288 414 332 400 338 393 c 0
229 379 m 0
 190 379 109 347 109 213 c 0
 109 62 213 31 257 31 c 0
 313 31 352 72 352 120 c 2
 352 255 l 2
 352 311 307 379 229 379 c 0
EndSplineSet
EndChar
StartChar: uni0220
Encoding: 544 544 1841
Width: 763
VWidth: 0
Flags: HMW
LayerCount: 3
Fore
SplineSet
186 -1 m 0
 127 -1 92 -5 32 -5 c 0
 15 -5 3 -2 3 6 c 0
 3 15 13 20 36 24 c 0
 86 33 114 51 114 98 c 2
 114 550 l 2
 114 597 97 613 47 622 c 0
 24 626 14 633 14 642 c 0
 14 650 26 653 43 653 c 0
 91 653 97 650 121 650 c 0
 124 650 127 650 131 650 c 8
 154 650 176 656 189 656 c 0
 195 656 200 651 200 642 c 0
 200 636 194 625 194 610 c 2
 194 577 l 18
 194 565 196 560 207 560 c 0
 214 560 218 563 233 578 c 0
 270 615 340 663 420 663 c 16
 612 663 683 567 683 373 c 2
 683 -179 l 2
 683 -227 715 -246 737 -252 c 0
 760 -258 770 -265 770 -274 c 0
 770 -282 758 -285 741 -285 c 0
 711 -285 678 -282 637 -282 c 24
 598 -282 558 -284 537 -284 c 0
 520 -284 508 -281 508 -273 c 0
 508 -264 519 -260 541 -253 c 0
 557 -248 603 -221 603 -181 c 2
 603 368 l 10
 603 491 528 613 405 613 c 16
 278 613 194 505 194 349 c 2
 194 100 l 1
 195 49 232 37 260 29 c 0
 274 25 293 18 293 9 c 0
 293 1 281 -2 264 -2 c 0
 240 -2 215 -1 186 -1 c 0
EndSplineSet
Validated: 1
EndChar
StartChar: uni0239
Encoding: 569 569 1709
Width: 811
VWidth: 0
Flags: HMW
LayerCount: 3
Fore
SplineSet
459 411 m 0
 455 386 450 357 450 351 c 2
 450 348 l 1
 469 367 549 414 612 414 c 0
 715 414 776 320 776 225 c 0
 776 107 677 -14 551 -14 c 0
 523 -14 471 0 451 18 c 1
 448 18 447 -27 447 -33 c 2
 447 -220 l 2
 447 -247 485 -252 505 -258 c 0
 516 -262 528 -266 528 -276 c 0
 528 -284 510 -285 502 -285 c 0
 501 -285 447 -281 412 -281 c 0
 377 -281 371 -285 332 -285 c 0
 325 -285 311 -284 311 -276 c 0
 311 -266 323 -262 334 -258 c 0
 354 -252 377 -247 377 -220 c 2
 377 -5 l 2
 377 18 375 25 371 25 c 0
 368 25 365 23 362 20 c 0
 345 5 298 -14 235 -14 c 0
 131 -14 35 54 35 178 c 0
 35 319 135 414 282 414 c 0
 350 414 405 392 410 392 c 0
 424 392 429 402 436 417 c 0
 437 418 440 421 443 421 c 0
 449 421 459 416 459 411 c 0
257 382 m 0
 185 382 117 320 117 205 c 0
 117 72 212 24 272 24 c 0
 306 24 333 28 358 47 c 0
 378 61 378 124 378 171 c 0
 378 207 378 250 377 275 c 0
 375 335 323 382 257 382 c 0
566 17 m 0
 605 17 696 59 696 193 c 0
 696 347 603 369 560 369 c 0
 526 369 499 359 474 340 c 0
 459 329 450 310 448 269 c 0
 448 252 447 229 447 205 c 0
 447 171 448 136 449 115 c 0
 450 97 454 60 473 42 c 0
 488 28 522 17 566 17 c 0
EndSplineSet
Validated: 1
EndChar
StartChar: uni023B
Encoding: 571 571 1805
Width: 640
VWidth: 0
Flags: HMW
LayerCount: 3
Fore
SplineSet
586 137 m 0
 592 148 606 152 611 156 c 0
 612 157 612 157 613 157 c 0
 617 157 620 147 620 138 c 0
 620 135 619 132 619 130 c 0
 615 105 601 49 586 26 c 0
 581 18 562 13 537 5 c 0
 502 -6 429 -15 369 -15 c 0
 318 -15 270 -3 228 19 c 1
 175 -74 l 2
 166 -90 149 -92 130 -92 c 0
 119 -92 115 -84 115 -77 c 1
 115 -77 112 -80 116 -74 c 2
 184 46 l 1
 100 108 46 210 46 323 c 0
 46 517 216 663 410 663 c 0
 442 663 498 657 516 651 c 0
 519 650 523 648 528 647 c 1
 558 700 l 2
 567 717 585 717 604 717 c 0
 611 717 618 711 618 704 c 0
 618 703 617 701 617 700 c 2
 580 635 l 1
 584 634 588 634 592 633 c 0
 600 632 604 617 605 603 c 0
 609 572 612 546 613 494 c 0
 614 485 612 470 602 471 c 0
 591 472 580 485 576 508 c 1
 572 543 557 564 546 576 c 1
 258 71 l 1
 297 37 345 16 400 16 c 0
 512 16 560 86 586 137 c 0
222 111 m 1
 505 607 l 1
 481 620 444 632 394 632 c 0
 247 632 146 494 146 347 c 0
 146 261 174 174 222 111 c 1
EndSplineSet
Validated: 1
EndChar
StartChar: uni0242
Encoding: 578 578 2493
Width: 374
VWidth: 0
Flags: HMW
LayerCount: 3
Fore
SplineSet
270 282 m 0
 270 330 232 381 176 381 c 0
 138 381 86 342 75 301 c 0
 70 281 61 255 48 255 c 0
 37 255 37 265 37 278 c 0
 37 304 39 305 43 335 c 0
 44 345 50 365 57 366 c 0
 84 368 137 411 189 411 c 0
 260 411 341 374 341 298 c 8
 341 238 266 204 236 184 c 0
 205 163 204 153 204 118 c 2
 204 62 l 2
 204 35 227 30 247 24 c 0
 258 20 270 16 270 6 c 0
 270 -2 257 -3 250 -3 c 0
 211 -3 204 2 169 2 c 0
 134 2 127 -3 88 -3 c 0
 81 -3 68 -2 68 6 c 0
 68 16 80 20 91 24 c 0
 111 30 134 35 134 62 c 2
 134 120 l 2
 134 152 150 173 188 197 c 0
 218 216 270 234 270 282 c 0
EndSplineSet
Validated: 1
EndChar
StartChar: uni0243
Encoding: 579 579 1806
Width: 598
VWidth: 0
Flags: HMW
LayerCount: 3
Fore
SplineSet
60 175 m 2
 51 175 46 179 46 185 c 0
 46 194 58 211 70 211 c 2
 150 211 l 1
 150 549 l 2
 150 597 132 618 83 622 c 0
 60 624 50 633 50 642 c 0
 50 650 62 653 79 653 c 0
 133 653 142 652 183 652 c 0
 221 652 236 657 294 657 c 0
 440 657 516 617 516 508 c 0
 516 463 497 427 482 412 c 0
 461 392 448 382 415 369 c 0
 410 367 409 361 415 359 c 0
 475 340 557 310 557 194 c 0
 557 84 494 51 453 30 c 0
 411 9 359 -4 293 -4 c 0
 275 -4 238 0 198 0 c 0
 146 0 126 -5 68 -5 c 0
 51 -5 39 -2 39 6 c 0
 39 15 49 20 72 24 c 0
 122 33 150 51 150 99 c 2
 150 175 l 1
 60 175 l 2
307 37 m 0
 385 37 463 103 463 189 c 0
 463 266 416 303 389 318 c 0
 371 328 335 343 285 343 c 0
 242 343 228 320 228 307 c 2
 228 211 l 1
 336 211 l 2
 342 211 350 207 350 200 c 0
 350 193 332 175 318 175 c 2
 228 175 l 1
 228 108 l 2
 228 52 256 37 307 37 c 0
274 371 m 0
 300 371 345 376 385 400 c 0
 399 408 430 437 430 495 c 0
 430 552 407 627 294 627 c 0
 239 627 228 612 228 582 c 2
 228 408 l 2
 228 373 258 371 274 371 c 0
EndSplineSet
Validated: 1
EndChar
StartChar: uni0244
Encoding: 580 580 1812
Width: 779
VWidth: 0
Flags: HMW
LayerCount: 3
Fore
SplineSet
56 268 m 2
 47 268 42 272 42 278 c 0
 42 287 54 304 66 304 c 2
 119 304 l 1
 119 547 l 2
 119 595 95 614 73 620 c 0
 50 626 40 633 40 642 c 0
 40 650 52 653 69 653 c 0
 99 653 128 650 165 650 c 0
 196 650 224 652 245 652 c 0
 262 652 274 649 274 641 c 0
 274 632 263 628 241 621 c 0
 225 616 199 589 199 549 c 2
 199 304 l 1
 608 304 l 1
 608 351 606 438 604 511 c 0
 603 562 591 612 563 620 c 0
 549 624 530 631 530 640 c 0
 530 648 542 651 559 651 c 0
 589 651 605 650 634 650 c 0
 666 650 692 653 715 653 c 0
 732 653 744 650 744 642 c 0
 744 633 734 627 711 622 c 0
 676 615 663 587 661 547 c 0
 655 455 654 378 652 304 c 1
 717 304 l 2
 723 304 731 300 731 293 c 0
 731 286 713 268 699 268 c 2
 652 268 l 1
 652 262 651 256 651 250 c 0
 646 95 535 -14 388 -14 c 0
 209 -14 119 87 119 240 c 2
 119 268 l 1
 56 268 l 2
607 268 m 1
 199 268 l 1
 199 108 287 36 409 36 c 0
 538 36 600 128 607 268 c 1
EndSplineSet
Validated: 1
EndChar
StartChar: uni0246
Encoding: 582 582 1813
Width: 565
VWidth: 0
Flags: HMW
LayerCount: 3
Fore
SplineSet
221 102 m 2
 221 51 242 35 287 35 c 2
 391 35 l 2
 441 35 454 43 467 53 c 0
 485 67 501 99 509 116 c 0
 513 124 516 127 523 126 c 0
 530 125 536 123 536 115 c 0
 536 97 526 38 519 12 c 0
 517 3 513 -5 505 -5 c 0
 377 -5 278 1 178 1 c 0
 165 1 154 1 144 -0 c 1
 102 -74 l 2
 93 -90 76 -92 57 -92 c 0
 46 -92 42 -84 42 -77 c 1
 42 -77 39 -80 43 -74 c 2
 83 -5 l 1
 77 -5 70 -5 63 -5 c 0
 46 -5 34 -2 34 6 c 0
 34 15 44 20 67 24 c 0
 82 27 95 30 105 35 c 1
 141 98 l 2
 141 99 l 2
 141 549 l 2
 141 597 124 613 74 622 c 0
 51 626 41 633 41 642 c 0
 41 650 53 653 70 653 c 0
 145 653 177 650 247 650 c 0
 325 650 424 652 458 653 c 1
 485 700 l 2
 494 717 512 717 531 717 c 0
 538 717 545 711 545 704 c 0
 545 703 544 701 544 700 c 2
 493 611 l 1
 498 585 502 560 502 541 c 0
 502 529 494 526 488 526 c 0
 481 526 479 529 477 536 c 0
 474 546 470 557 467 566 c 1
 346 353 l 1
 370 356 387 371 396 391 c 0
 398 396 409 408 414 408 c 0
 419 408 427 402 427 392 c 0
 427 383 424 353 424 337 c 0
 424 317 426 277 426 269 c 0
 426 260 425 252 417 252 c 0
 404 252 396 268 394 275 c 0
 384 306 365 320 348 320 c 2
 327 320 l 1
 221 134 l 1
 221 102 l 2
221 238 m 1
 268 320 l 1
 255 320 l 2
 232 320 221 317 221 294 c 2
 221 238 l 1
286 352 m 1
 433 608 l 1
 419 615 404 618 388 618 c 2
 257 618 l 2
 246 618 221 605 221 586 c 2
 221 374 l 2
 221 362 229 352 239 352 c 2
 286 352 l 1
EndSplineSet
Validated: 1
EndChar
StartChar: uni024A
Encoding: 586 586 1967
Width: 696
VWidth: 0
Flags: HMW
LayerCount: 3
Fore
SplineSet
526 116 m 2
 526 524 l 2
 526 580 454 632 363 632 c 8
 217 632 146 473 146 326 c 8
 146 177 215 16 371 16 c 0
 424 16 526 65 526 116 c 2
497 12 m 0
 469 -2 411 -15 344 -15 c 0
 174 -15 46 120 46 302 c 0
 46 496 185 663 379 663 c 0
 411 663 519 640 537 634 c 0
 555 628 584 671 598 671 c 0
 606 671 606 655 606 638 c 2
 606 -47 l 2
 606 -213 623 -245 672 -245 c 0
 706 -245 733 -220 733 -180 c 0
 733 -162 788 -126 809 -126 c 0
 817 -126 817 -139 817 -152 c 0
 817 -238 727 -276 644 -276 c 0
 585 -276 526 -226 526 -109 c 2
 526 -3 l 2
 526 25 513 20 497 12 c 0
EndSplineSet
Validated: 33
EndChar
StartChar: uni024B
Encoding: 587 587 1816
Width: 557
VWidth: 0
Flags: HMW
LayerCount: 3
Fore
SplineSet
447 -46 m 2
 447 -210 471 -260 515 -260 c 0
 551 -260 565 -238 565 -219 c 0
 565 -201 607 -169 628 -169 c 0
 636 -169 637 -182 637 -195 c 0
 637 -258 574 -288 495 -288 c 0
 417 -288 377 -211 377 -103 c 2
 377 -5 l 2
 377 18 375 25 371 25 c 0
 368 25 365 23 362 20 c 0
 345 5 298 -14 235 -14 c 0
 131 -14 35 54 35 178 c 0
 35 319 135 414 282 414 c 0
 350 414 405 392 410 392 c 0
 424 392 429 402 436 417 c 0
 437 418 440 421 443 421 c 0
 449 421 459 416 459 411 c 2
 458 404 l 1
 450 370 447 320 447 295 c 2
 447 -46 l 2
257 382 m 0
 185 382 117 320 117 205 c 0
 117 72 212 24 272 24 c 0
 306 24 333 28 358 47 c 0
 378 61 378 124 378 171 c 0
 378 207 378 250 377 275 c 0
 375 335 323 382 257 382 c 0
EndSplineSet
Validated: 1
EndChar
StartChar: uni024E
Encoding: 590 590 2491
Width: 621
VWidth: 0
Flags: HMW
LayerCount: 3
Fore
SplineSet
66 468 m 2
 57 468 52 472 52 478 c 0
 52 487 64 504 76 504 c 2
 159 504 l 1
 148 522 l 2
 133 546 93 610 59 620 c 0
 37 627 26 633 26 642 c 0
 26 650 38 653 55 653 c 0
 85 653 126 650 172 650 c 0
 203 650 231 652 252 652 c 0
 269 652 281 649 281 641 c 0
 281 632 270 626 248 621 c 0
 229 616 216 611 216 596 c 0
 216 588 220 576 229 560 c 2
 260 504 l 1
 449 504 l 1
 454 513 460 523 466 534 c 0
 479 556 484 573 484 585 c 0
 484 610 462 617 443 620 c 0
 429 622 410 631 410 640 c 0
 410 648 422 651 439 651 c 0
 469 651 485 650 514 650 c 0
 555 650 595 653 618 653 c 0
 635 653 647 650 647 642 c 0
 647 633 622 625 594 617 c 0
 559 607 542 581 506 526 c 0
 501 518 496 511 492 504 c 1
 582 504 l 2
 588 504 596 500 596 493 c 0
 596 486 578 468 564 468 c 2
 469 468 l 1
 443 428 428 403 395 346 c 0
 370 303 370 295 370 256 c 2
 370 108 l 2
 370 63 399 33 449 24 c 0
 472 20 482 15 482 6 c 0
 482 -2 470 -5 453 -5 c 0
 399 -5 382 0 336 0 c 0
 286 0 262 -5 208 -5 c 0
 191 -5 179 -2 179 6 c 0
 179 15 189 20 212 24 c 0
 262 33 290 60 290 108 c 2
 290 256 l 2
 290 283 270 321 265 330 c 2
 181 468 l 1
 66 468 l 2
428 468 m 1
 280 468 l 1
 321 395 l 2
 336 369 343 357 349 357 c 0
 357 357 364 367 382 395 c 0
 400 422 413 443 428 468 c 1
EndSplineSet
Validated: 1
Position2: "Single Positioning lookup 97 subtable" dx=0 dy=0 dh=135 dv=0
Position2: "Single Positioning lookup 96 subtable" dx=0 dy=0 dh=100 dv=0
Position2: "Single Positioning lookup 95 subtable" dx=0 dy=0 dh=80 dv=0
Position2: "Single Positioning lookup 94 subtable" dx=0 dy=0 dh=65 dv=0
Position2: "Single Positioning lookup 93 subtable" dx=0 dy=0 dh=45 dv=0
Position2: "Single Positioning lookup 92 subtable" dx=0 dy=0 dh=15 dv=0
Position2: "Single Positioning lookup 91 subtable" dx=0 dy=0 dh=60 dv=0
Position2: "Single Positioning lookup 90 subtable" dx=0 dy=0 dh=25 dv=0
Position2: "Single Positioning lookup 89 subtable" dx=0 dy=0 dh=15 dv=0
Position2: "Single Positioning lookup 88 subtable" dx=0 dy=0 dh=135 dv=0
Position2: "Single Positioning lookup 87 subtable" dx=0 dy=0 dh=100 dv=0
Position2: "Single Positioning lookup 86 subtable" dx=0 dy=0 dh=80 dv=0
Position2: "Single Positioning lookup 85 subtable" dx=0 dy=0 dh=65 dv=0
Position2: "Single Positioning lookup 84 subtable" dx=0 dy=0 dh=45 dv=0
Position2: "Single Positioning lookup 83 subtable" dx=0 dy=0 dh=15 dv=0
EndChar
StartChar: uni0250
Encoding: 592 592 1616
Width: 409
VWidth: 0
Flags: HMW
AnchorPoint: "below_accent" 210 -100 basechar 0
AnchorPoint: "top_accent" 210 550 basechar 0
LayerCount: 3
Fore
SplineSet
289 305 m 0
 289 340 271 360 247 360 c 0
 202 360 177 332 166 316 c 0
 160.777032924 308.402956981 155 300 155 286 c 10
 155 224 l 18
 155 209 161 204 169 204 c 0
 172 204 176.419120613 203.760458966 181 206 c 0
 226 228 289 252 289 305 c 0
176 -14 m 1
 128.000008984 -13.9706318512 85 28 85 75 c 10
 85 291 l 17
 85.91015625 340.58984375 78.4912109375 346.491210938 37 368 c 1
 32.1875 369.684570312 29 375 29 381 c 0
 29 387 35.8794473753 395.844507448 40 396 c 0
 93 398 119 407 152 415 c 0
 152.971679688 415.235351562 153 416 154 416 c 0
 157 416 161 409 162 406 c 1
 162 399 158 380 155 348 c 0
 154.813318583 346.008731548 156 345 157 346 c 1
 170 346 207.993902666 414 290 414 c 0
 338 414 361 364 361 325 c 0
 361 283 337.595703125 245.962890625 292 224 c 0
 258.038085938 207.640625 220 189 186 172 c 0
 160.74948317 159.374741585 155 155 155 135 c 2
 155 101 l 26
 155 67.9072265625 165 41 215 41 c 0
 237 41 265 61 273 75 c 0
 276 80 274.627187054 80.1359352702 276 87 c 0
 277 92 279 95 279 100 c 0
 279 114 326 130 348 136 c 0
 354 138 359 126 355 115 c 1
 352 67 237 -12 176 -14 c 1
EndSplineSet
Validated: 1
EndChar
StartChar: uni0254
Encoding: 596 596 1617
Width: 424
VWidth: 0
Flags: HMW
AnchorPoint: "cedilla" 220 8 basechar 0
AnchorPoint: "ogonek" 246 18 basechar 0
AnchorPoint: "below_accent" 175 -100 basechar 0
AnchorPoint: "top_accent" 184 550 basechar 0
LayerCount: 3
Back
SplineSet
29 53 m 0
 29 67 49 91 68 91 c 0
 78 91 86 83 91 78 c 0
 124 42 143 23 193 23 c 8
 266 23 303 100 303 173 c 16
 303 269 246 361 152 361 c 20
 110 361 82 340 56 306 c 4
 53 303 50 301 47 301 c 4
 40 301 33 309 35 317 c 4
 45 352 109 413 201 413 c 12
 302 413 372 322 372 219 c 8
 372 96 284 -14 161 -14 c 16
 118 -14 63 5 33 42 c 0
 30 46 29 49 29 53 c 0
EndSplineSet
Fore
SplineSet
166 383 m 0
 104.884765625 383 73.978515625 331.008789062 68 309 c 0
 65.37890625 299.349609375 47 290 37 290 c 0
 35 290 39.8076171875 360.904296875 53 372 c 0
 64.3037109375 381.506835938 116 413 183 413 c 0
 298.00390625 413 389 321 389 213 c 0
 389 96 313 -14 162 -14 c 0
 119 -14 54 5 24 42 c 0
 21 46 20 49 20 53 c 0
 20 67 40 91 59 91 c 0
 69 91 77 83 82 78 c 0
 115 42 134 17 184 17 c 0
 229 16 267 32 287 71 c 0
 303 102 307 150 307 189 c 0
 307 284 252 383 166 383 c 0
EndSplineSet
Validated: 33
Layer: 2
SplineSet
175 383 m 0
 139 383 111 374 87 343 c 0
 60 309 55 258 55 210 c 0
 55 111 113 16 193 16 c 0
 238 16 276 32 296 71 c 0
 312 102 316 150 316 189 c 0
 316 284 260 383 175 383 c 0
192 414 m 0
 308 414 398 321 398 213 c 0
 398 96 322 -14 172 -14 c 0
 60 -14 -27 70 -27 187 c 0
 -27 298 69 414 192 414 c 0
EndSplineSet
EndChar
StartChar: uni0255
Encoding: 597 597 1817
Width: 409
VWidth: 0
Flags: HMW
AnchorPoint: "below_accent" 205 -100 basechar 0
AnchorPoint: "top_accent" 236 550 basechar 0
LayerCount: 3
Fore
SplineSet
84 50 m 1
 57 85 41 131 41 180 c 0
 41 303 129 413 252 413 c 0
 295 413 342 402 372 365 c 0
 375 361 377 357 377 353 c 0
 377 336 349 319 339 319 c 0
 330 319 319 324 314 329 c 0
 281 365 270 376 220 376 c 0
 147 376 110 299 110 226 c 0
 110 185 121 145 142 112 c 1
 185 149 239 180 301 180 c 0
 346 180 394 157 394 112 c 0
 394 44 308 -14 212 -14 c 0
 170 -14 133 2 104 29 c 1
 91 12 81 -4 75 -20 c 0
 71 -28 66 -42 53 -42 c 0
 46 -42 40 -34 40 -26 c 0
 40 -18 56 14 84 50 c 1
160 88 m 1
 188 56 227 38 271 38 c 0
 307 38 342 55 342 84 c 0
 342 129 308 146 279 146 c 0
 234 146 196 120 160 88 c 1
EndSplineSet
Validated: 1
EndChar
StartChar: uni0256
Encoding: 598 598 1818
Width: 500
VWidth: 0
Flags: HMW
AnchorPoint: "below_accent" 223 -100 basechar 0
AnchorPoint: "top_accent" 263 761 basechar 0
LayerCount: 3
Fore
SplineSet
352 41 m 2
 352 44 351 57 351 57 c 1
 331 26 286 -14 220 -14 c 0
 106 -14 35 89 35 190 c 0
 35 306 120 414 260 414 c 0
 288 414 332 400 338 393 c 0
 342 388 346 384 348 384 c 0
 351 384 352 390 352 408 c 2
 352 566 l 2
 352 620 335 632 301 639 c 0
 296 640 293 646 293 652 c 0
 293 657 295 663 300 664 c 0
 373 681 408 704 422 704 c 0
 426 704 428 702 429 698 c 1
 429 686 422 652 422 562 c 2
 422 -45 l 2
 422 -211 446 -260 490 -260 c 0
 526 -260 540 -238 540 -219 c 0
 540 -201 582 -169 603 -169 c 0
 611 -169 612 -182 612 -195 c 0
 612 -258 549 -288 470 -288 c 0
 392 -288 353 -211 352 -104 c 1
 352 41 l 2
229 379 m 0
 190 379 109 347 109 213 c 0
 109 62 213 31 257 31 c 0
 313 31 352 72 352 120 c 2
 352 255 l 2
 352 311 307 379 229 379 c 0
EndSplineSet
Validated: 1
EndChar
StartChar: uni0259
Encoding: 601 601 1619
Width: 407
VWidth: 0
Flags: HMW
AnchorPoint: "cedilla" 220 8 basechar 0
AnchorPoint: "ogonek" 246 18 basechar 0
AnchorPoint: "below_accent" 185 -100 basechar 0
AnchorPoint: "top_accent" 190 550 basechar 0
LayerCount: 3
Back
SplineSet
21 101 m 0xf4
 21 171 51 179 118 179 c 18
 273 179 l 2
 289 179 291 182 291 216 c 0
 291 296 223 362 142 362 c 16
 100 362 80 346 54 312 c 0
 51 309 48 307 45 307 c 0
 38 307 31 315 33 323 c 0xec
 43 358 103 414 195 414 c 8
 296 414 368 323 368 220 c 8
 368 102 286 -14 176 -14 c 0
 74 -14 21 52 21 101 c 0xf4
286 86 m 0
 289 92 292 107 292 120 c 0
 292 135 289 148 277 148 c 2
 187 148 l 10
 158 148 135 147 114 143 c 0
 103 141 102 98 102 91 c 0xf4
 102 59 139 17 187 17 c 0
 243 17 274 64 286 86 c 0
EndSplineSet
Fore
Refer: 1666 477 N 1 0 0 1 0 0 2
Validated: 1
EndChar
StartChar: uni025C
Encoding: 604 604 1620
Width: 366
VWidth: 0
Flags: HMW
AnchorPoint: "below_accent" 168 -100 basechar 0
AnchorPoint: "top_accent" 177 550 basechar 0
LayerCount: 3
Fore
SplineSet
186 411 m 0
 257 411 317 386 317 311 c 0
 317 280 306 255 296 245 c 0
 281 231 276 229 249 218 c 0
 246 217 245 211 249 211 c 0
 288 207 331 178 331 120 c 0
 331 44 286 18 261 4 c 1
 234 -13 192 -14 147 -14 c 0
 115 -14 39 5 30 40 c 0
 24 67 24 78 24 99 c 0
 24 115 30 124 39 124 c 0
 44 124 51 108 57 94 c 0
 82 38 121 18 158 18 c 0
 211 18 258 55 258 115 c 0
 258 154 233 196 193 196 c 0
 178 196 168 190 146 190 c 0
 130 190 112 196 112 212 c 0
 112 231 129 237 153 237 c 0
 166 237 177 231 196 231 c 0
 219 231 254 255 254 295 c 0
 254 334 229 381 173 381 c 0
 135 381 106 358 81 317 c 0
 70 299 67 271 54 271 c 0
 43 271 43 281 43 294 c 0
 43 320 45 321 49 351 c 0
 50 361 54 376 63 380 c 0
 87 391 145 411 186 411 c 0
EndSplineSet
Validated: 1
EndChar
StartChar: uni025F
Encoding: 607 607 1764
Width: 225
VWidth: 0
Flags: HMW
AnchorPoint: "below_accent" 71 -400 basechar 0
AnchorPoint: "top_accent" 109 572 basechar 0
LayerCount: 3
Fore
SplineSet
149 176 m 1
 149 91 l 2
 149 29 148 -72 119 -152 c 0
 94 -220 34 -287 -6 -287 c 0
 -13 -287 -27 -284 -27 -277 c 0
 -27 -269 -18 -261 -16 -260 c 0
 8 -254 31 -237 50 -197 c 0
 79 -136 79 0 79 69 c 2
 79 176 l 1
 12 176 l 2
 6 176 1 182 1 188 c 0
 1 197 5 220 20 220 c 2
 79 220 l 1
 79 279 l 2
 79 315 67 345 33 352 c 0
 28 353 25 359 25 365 c 0
 25 370 28 376 32 377 c 0
 99 393 144 434 152 434 c 0
 156 434 159 432 159 429 c 0
 155 388 149 320 149 275 c 2
 149 220 l 1
 198 220 l 2
 203 220 210 214 210 208 c 0
 210 188 200 176 184 176 c 2
 149 176 l 1
EndSplineSet
Validated: 1
EndChar
StartChar: uni0266
Encoding: 614 614 1731
Width: 517
VWidth: 0
Flags: HMW
AnchorPoint: "top_accent" 242 805 basechar 0
LayerCount: 3
Fore
SplineSet
85 465 m 2
 85 612 181 706 267 706 c 0
 300 706 331 702 344 686 c 0
 350 679 352 673 352 667 c 0
 352 645 334 622 315 622 c 0
 288 622 285 676 236 676 c 0
 193 676 159 609 157 500 c 2
 155 388 l 2
 155 376 158 357 163 351 c 1
 194 374 251 414 314 414 c 0
 379 414 430 372 430 294 c 2
 430 68 l 2
 430 41 451 30 471 24 c 0
 482 20 494 16 494 6 c 0
 494 -2 482 -3 474 -3 c 0
 473 -3 472 -3 471 -3 c 0
 432 -3 429 2 394 2 c 0
 359 2 358 -3 319 -3 c 0
 318 -3 317 -3 316 -3 c 0
 308 -3 296 -2 296 6 c 0
 296 16 308 20 319 24 c 0
 339 30 358 41 358 68 c 2
 358 272 l 10
 358 322 308 362 265 362 c 0
 240 362 201 355 182 340 c 0
 161 323 155 309 155 268 c 2
 155 65 l 1
 156 38 173 30 193 24 c 0
 204 20 216 16 216 6 c 0
 216 -2 204 -3 196 -3 c 0
 195 -3 194 -3 193 -3 c 0
 154 -3 155 2 120 2 c 0
 85 2 81 -3 42 -3 c 0
 41 -3 40 -3 39 -3 c 0
 32 -3 19 -2 19 6 c 0
 19 16 31 20 42 24 c 0
 62 30 84 38 85 65 c 1
 85 465 l 2
EndSplineSet
Validated: 1
EndChar
StartChar: uni0267
Encoding: 615 615 1732
Width: 508
VWidth: 0
Flags: HMW
AnchorPoint: "below_accent" 279 -400 basechar 0
AnchorPoint: "top_accent" 242 805 basechar 0
LayerCount: 3
Fore
SplineSet
156 356 m 2
 156 352 156 349 157 348 c 1
 176 367 263 414 326 414 c 0
 391 414 434 373 435 295 c 0
 435 260 438 177 438 90 c 0
 438 -16 434 -128 419 -173 c 0
 390 -259 331 -288 277 -288 c 0
 252 -288 235 -288 211 -278 c 0
 201 -274 184 -262 184 -255 c 0
 184 -239 199 -207 211 -207 c 0
 235 -207 243 -256 286 -256 c 0
 311 -256 343 -236 353 -201 c 0
 365 -160 368 -53 368 50 c 0
 368 148 365 242 365 272 c 0
 365 330 327 365 274 365 c 0
 240 365 206 353 181 334 c 0
 166 323 156 309 156 268 c 2
 156 69 l 2
 156 41 178 30 198 24 c 0
 209 20 221 16 221 6 c 0
 221 -4 203 -3 198 -3 c 0
 159 -3 155 2 120 2 c 0
 85 2 81 -3 42 -3 c 0
 37 -3 19 -4 19 6 c 0
 19 16 31 20 42 24 c 0
 62 30 86 38 86 66 c 2
 86 465 l 1
 88 612 182 706 268 706 c 0
 301 706 332 702 345 686 c 0
 351 679 353 673 353 667 c 0
 353 645 335 622 316 622 c 0
 289 622 286 676 237 676 c 0
 194 676 158 609 156 500 c 1
 156 356 l 2
EndSplineSet
Validated: 1
EndChar
StartChar: uni0269
Encoding: 617 617 1961
Width: 232
VWidth: 0
Flags: HMW
AnchorPoint: "below_accent" 148 -100 basechar 0
AnchorPoint: "top_accent" 107 572 basechar 0
LayerCount: 3
Fore
SplineSet
145 76 m 10
 145 54 165 32 182 32 c 0
 212 32 223 44 231 54 c 0
 236 60 247 53 247 45 c 0
 247 37 218 -14 157 -14 c 8
 111 -14 75 24 75 70 c 18
 75 279 l 2
 75 315 62 345 28 352 c 0
 23 353 20 359 20 365 c 0
 20 370 23 376 27 377 c 0
 94 393 139 434 147 434 c 0
 151 434 154 432 154 429 c 0
 150 388 145 339 145 294 c 2
 145 76 l 10
EndSplineSet
Validated: 1
EndChar
StartChar: uni026A
Encoding: 618 618 1676
Width: 234
VWidth: 0
Flags: HMW
AnchorPoint: "below_accent" 114 -100 basechar 0
AnchorPoint: "top_accent" 119 567 basechar 0
LayerCount: 3
Fore
SplineSet
152 331 m 2
 152 63 l 2
 152 35 175 30 195 24 c 0
 206 20 218 16 218 6 c 0
 218 -2 205 -3 198 -3 c 0
 158 -3 152 2 117 2 c 0
 82 2 76 -3 36 -3 c 0
 29 -3 16 -2 16 6 c 0
 16 16 28 20 39 24 c 0
 59 30 82 35 82 63 c 2
 82 331 l 2
 82 360 70 374 45 378 c 0
 33 380 22 386 22 396 c 0
 22 404 35 405 42 405 c 0
 82 405 80 400 115 400 c 0
 150 400 155 405 195 405 c 0
 203 405 215 404 215 396 c 0
 215 386 204 380 192 378 c 0
 165 373 152 358 152 331 c 2
EndSplineSet
Validated: 1
EndChar
StartChar: uni026C
Encoding: 620 620 1821
Width: 276
VWidth: 0
Flags: HMW
AnchorPoint: "below_accent" 146 -100 basechar 0
AnchorPoint: "top_accent" 132 790 basechar 0
LayerCount: 3
Fore
SplineSet
184 62 m 2
 184 35 207 30 227 24 c 0
 238 20 250 16 250 6 c 0
 250 -2 237 -3 230 -3 c 0
 191 -3 184 2 149 2 c 0
 114 2 107 -3 68 -3 c 0
 61 -3 48 -2 48 6 c 0
 48 16 60 20 71 24 c 0
 91 30 114 35 114 62 c 2
 114 265 l 1
 43 268 -14 298 -14 352 c 0
 -14 405 24 443 81 443 c 0
 93 443 104 442 114 439 c 1
 114 566 l 2
 114 605 101 632 68 639 c 0
 63 640 60 646 60 652 c 0
 60 658 63 663 67 664 c 0
 118 676 151 692 183 704 c 0
 184 704 184 705 185 705 c 0
 188 705 191 701 191 698 c 0
 191 686 184 652 184 562 c 0
 184 479 184 395 184 312 c 1
 207 318 229 327 254 342 c 0
 259 345 269 355 276 355 c 0
 285 355 285 347 285 338 c 0
 285 331 237 296 184 277 c 1
 184 62 l 2
114 307 m 1
 114 333 l 2
 114 375 97 414 64 414 c 0
 49 414 38 399 38 384 c 0
 38 339 63 312 114 307 c 1
EndSplineSet
Validated: 1
EndChar
StartChar: uni026D
Encoding: 621 621 1822
Width: 226
VWidth: 0
Flags: HMW
AnchorPoint: "below_accent" 195 -400 basechar 0
AnchorPoint: "top_accent" 88 790 basechar 0
LayerCount: 3
Fore
SplineSet
73 -104 m 2
 73 566 l 2
 73 605 60 632 27 639 c 0
 22 640 19 646 19 652 c 0
 19 658 22 663 26 664 c 0
 77 676 110 692 142 704 c 0
 143 704 143 705 144 705 c 0
 147 705 150 701 150 698 c 0
 150 686 143 652 143 562 c 2
 143 -44 l 2
 143 -210 168 -260 212 -260 c 0
 248 -260 262 -238 262 -219 c 0
 262 -201 304 -169 325 -169 c 0
 333 -169 334 -182 334 -195 c 0
 334 -258 271 -288 192 -288 c 0
 114 -288 73 -211 73 -104 c 2
EndSplineSet
Validated: 1
EndChar
StartChar: uni0272
Encoding: 626 626 1690
Width: 513
VWidth: 0
Flags: HMW
AnchorPoint: "below_accent" 278 -100 basechar 0
AnchorPoint: "top_accent" 244 550 basechar 0
LayerCount: 3
Fore
SplineSet
73 66 m 2
 73 277 l 2
 73 313 66 342 32 349 c 0
 27 350 24 356 24 362 c 0
 24 367 26 373 31 374 c 0
 83 386 118 412 141 429 c 0
 142 430 142 430 143 430 c 0
 146 430 149 424 150 421 c 1
 150 411 143 373 143 356 c 0
 143 352 143 349 144 348 c 1
 173 372 246 414 309 414 c 0
 374 414 425 373 425 295 c 2
 425 62 l 2
 425 35 448 30 468 24 c 0
 479 20 491 16 491 6 c 0
 491 -2 479 -3 471 -3 c 0
 470 -3 469 -3 468 -3 c 0
 429 -3 423 2 388 2 c 0
 353 2 348 -3 309 -3 c 0
 308 -3 307 -3 306 -3 c 0
 299 -3 286 -2 286 6 c 0
 286 16 298 20 309 24 c 0
 329 30 352 35 352 62 c 2
 352 272 l 2
 352 330 315 365 262 365 c 0
 195 365 143 347 143 268 c 2
 143 88 l 2
 143 28 143 -72 114 -152 c 0
 89 -220 25 -279 -14 -287 c 1
 -19 -287 l 2
 -26 -287 -35 -284 -35 -277 c 0
 -35 -269 -26 -261 -24 -260 c 0
 0 -254 23 -237 42 -197 c 0
 71 -136 73 -1 73 66 c 2
EndSplineSet
Validated: 1
EndChar
StartChar: uni027D
Encoding: 637 637 1826
Width: 319
VWidth: 0
Flags: HMW
LayerCount: 3
Fore
SplineSet
90 277 m 2
 90 313 82 342 49 349 c 0
 44 350 41 356 41 362 c 0
 41 368 44 373 48 374 c 0
 99 386 132 413 159 429 c 0
 160 429 160 430 161 430 c 0
 164 430 166 426 167 423 c 1
 167 416 166 380 164 348 c 0
 164 346 164 346 165 346 c 0
 169 346 182 365 189 371 c 0
 220 399 257 414 281 414 c 0
 309 414 329 400 329 382 c 0
 329 362 310 330 290 330 c 0
 273 330 250 348 230 348 c 0
 198 348 160 331 160 264 c 2
 160 -45 l 2
 160 -211 184 -260 228 -260 c 0
 264 -260 278 -238 278 -219 c 0
 278 -201 320 -169 341 -169 c 0
 349 -169 350 -182 350 -195 c 0
 350 -258 287 -288 208 -288 c 0
 130 -288 90 -211 90 -104 c 2
 90 277 l 2
EndSplineSet
Validated: 1
EndChar
StartChar: uni0289
Encoding: 649 649 1831
Width: 527
VWidth: 0
Flags: HMW
LayerCount: 3
Fore
SplineSet
432 415 m 1
 434 415 l 2
 443 415 451 405 446 397 c 0
 442 390 438 342 438 326 c 2
 438 220 l 1
 487 220 l 2
 493 220 500 214 500 208 c 0
 500 188 484 185 469 185 c 2
 438 185 l 1
 438 114 l 2
 438 73 440 45 456 45 c 0
 466 45 492 46 502 48 c 0
 507 49 517 47 517 35 c 0
 517 24 508 21 503 21 c 0
 451 14 415 -1 386 -13 c 0
 382 -15 368 -19 362 -19 c 0
 358 -19 359 -18 359 -15 c 0
 359 -2 364 34 364 51 c 2
 364 57 l 1
 312 6 261 -14 199 -14 c 0
 134 -14 85 27 85 105 c 2
 85 185 l 1
 44 185 l 2
 37 185 30 191 30 197 c 0
 30 206 41 220 54 220 c 2
 85 220 l 1
 85 308 l 2
 85 337 72 353 42 365 c 0
 39 366 29 370 29 380 c 0
 29 393 39 396 44 397 c 0
 98 399 108 405 147 414 c 1
 157 415 162 410 161 400 c 0
 157 369 155 353 155 323 c 2
 155 220 l 1
 368 220 l 1
 368 315 l 2
 368 356 323 364 303 365 c 0
 298 365 280 368 280 382 c 0
 280 394 299 397 303 397 c 0
 404 402 396 405 432 415 c 1
368 185 m 1
 155 185 l 1
 155 128 l 2
 155 80 196 37 239 37 c 0
 273 37 298 38 323 57 c 0
 338 68 368 91 368 132 c 2
 368 185 l 1
EndSplineSet
Validated: 1
EndChar
StartChar: uni028C
Encoding: 652 652 1670
Width: 438
VWidth: 0
Flags: HMW
LayerCount: 3
Fore
SplineSet
154 22 m 0
 165 18 177 14 177 4 c 0
 177 -4 164 -5 157 -5 c 0
 142 -5 119 0 84 0 c 0
 49 0 44 -5 25 -5 c 0
 18 -5 5 -4 5 4 c 0
 5 14 17 18 28 22 c 0
 48 28 76 56 90 89 c 18
 168 277 l 2
 173 288 205 377 205 377 c 1
 205 377 227 422 232 422 c 0
 237 422 249 392 252 383 c 2
 374 71 l 10
 384 47 400 28 420 22 c 0
 431 18 443 14 443 4 c 0
 443 -4 430 -5 423 -5 c 0
 384 -5 385 0 350 0 c 0
 315 0 314 -5 275 -5 c 0
 268 -5 255 -4 255 4 c 0
 255 14 267 18 278 22 c 0
 292 26 298 44 298 63 c 0
 298 72 297 82 294 90 c 2
 220 289 l 2
 215 303 213 304 208 290 c 2
 136 105 l 2
 131 92 129 80 129 69 c 0
 129 44 140 26 154 22 c 0
EndSplineSet
Validated: 1
EndChar
StartChar: uni028D
Encoding: 653 653 1671
Width: 685
VWidth: 0
Flags: HMW
LayerCount: 3
Fore
SplineSet
81 89 m 26
 218 417 l 2
 220 421 223 424 227 424 c 0
 230 424 233 421 235 417 c 2
 339 159 l 2
 343 149 346 146 352 160 c 2
 461 417 l 2
 463 421 466 424 469 424 c 0
 472 424 475 421 476 417 c 2
 615 72 l 10
 625 46 647 29 667 23 c 0
 678 19 690 15 690 5 c 0
 690 -3 677 -4 670 -4 c 0
 664 -4 597 1 597 1 c 0
 597 1 521 -4 514 -4 c 0
 509 -4 494 -3 494 5 c 0
 494 15 506 19 517 23 c 0
 531 27 538 44 538 63 c 0
 538 72 536 81 533 89 c 2
 457 285 l 2
 452 299 448 298 442 284 c 2
 376 123 l 2
 372 112 370 102 370 93 c 0
 370 56 399 29 420 23 c 0
 431 20 443 15 443 5 c 0
 443 -3 431 -4 423 -4 c 0
 405 -4 385 1 348 1 c 0
 311 1 286 -4 264 -4 c 0
 257 -4 244 -3 244 5 c 0
 244 15 256 19 267 23 c 0
 282 28 301 35 301 59 c 0
 301 67 299 77 294 89 c 2
 219 282 l 2
 213 296 209 297 203 283 c 2
 127 106 l 2
 122 95 120 84 120 75 c 0
 120 46 140 28 155 23 c 0
 166 19 178 15 178 5 c 0
 178 -3 165 -4 158 -4 c 0
 129 -4 119 1 83 1 c 0
 46 1 47 -4 25 -4 c 0
 17 -4 5 -3 5 5 c 0
 5 15 17 19 28 23 c 0
 48 29 68 59 81 89 c 26
EndSplineSet
Validated: 1
EndChar
StartChar: uni028E
Encoding: 654 654 1672
Width: 438
VWidth: 0
Flags: HMW
LayerCount: 3
Fore
SplineSet
435 651 m 8
 435 635 428 621 408 621 c 0
 393 621 379 627 368 627 c 0
 360 627 354 624 349 616 c 0
 328 580 287 495 258 418 c 0
 256 412 255 404 255 395 c 0
 255 384 256 374 259 366 c 2
 375 73 l 10
 385 49 400 30 420 24 c 0
 431 20 443 16 443 6 c 0
 443 -2 430 -3 423 -3 c 0
 383 -3 385 2 350 2 c 0
 315 2 314 -3 274 -3 c 0
 266 -3 254 0 254 8 c 0
 254 18 272 27 283 30 c 0
 297 34 303 43 303 62 c 0
 303 70 298 83 295 90 c 2
 216 286 l 2
 210 300 206 299 201 285 c 2
 134 107 l 2
 130 98 126 80 126 70 c 0
 126 45 134 37 146 32 c 0
 157 27 175 18 175 8 c 0
 175 0 162 -3 155 -3 c 0
 137 -3 121 2 84 2 c 0
 47 2 47 -3 25 -3 c 0
 18 -3 5 -2 5 6 c 0
 5 16 17 20 28 24 c 0
 48 30 74 59 87 91 c 26
 223 415 l 2
 227 424 278 550 319 646 c 0
 331 673 355 687 384 687 c 8
 408 687 435 673 435 651 c 8
EndSplineSet
Validated: 1
EndChar
StartChar: uni0291
Encoding: 657 657 1833
Width: 377
VWidth: 0
Flags: HMW
LayerCount: 3
Fore
SplineSet
227 35 m 1
 284 35 l 2
 310 35 328 50 328 67 c 0
 328 91 321 108 293 108 c 0
 274 108 248 77 227 35 c 1
192 35 m 1
 219 94 262 144 309 144 c 0
 354 144 370 124 370 79 c 0
 370 11 298 -5 292 -5 c 0
 274 -5 253 -2 212 -1 c 1
 204 -24 197 -48 194 -72 c 0
 191 -93 181 -112 170 -112 c 0
 162 -112 159 -105 159 -96 c 0
 159 -69 166 -35 178 -1 c 1
 161 -1 142 0 119 0 c 0
 91 0 56 -5 39 -5 c 0
 34 -5 25 7 25 12 c 0
 25 17 48 51 62 70 c 0
 129 166 175 238 248 354 c 0
 251 358 254 364 239 364 c 2
 122 364 l 2
 104 364 90 337 70 311 c 0
 65 305 53 286 43 286 c 0
 34 286 33 300 37 308 c 0
 45 327 54 373 54 398 c 0
 54 408 65 416 69 416 c 0
 72 416 78 412 84 407 c 0
 90 402 109 401 127 401 c 0
 142 401 156 402 165 402 c 0
 234 402 290 403 351 405 c 0
 356 405 361 397 358 393 c 0
 344 376 334 363 320 343 c 2
 127 50 l 2
 122 42 133 35 139 35 c 2
 192 35 l 1
EndSplineSet
Validated: 1
EndChar
StartChar: uni0293
Encoding: 659 659 1834
Width: 426
VWidth: 0
Flags: HMW
LayerCount: 3
Fore
SplineSet
339 -167 m 1
 370 -203 391 -241 391 -269 c 0
 391 -278 390 -286 383 -286 c 0
 376 -286 368 -273 362 -262 c 0
 352 -243 336 -220 315 -197 c 1
 271 -248 209 -285 140 -285 c 0
 56 -285 18 -240 18 -179 c 0
 18 -107 87 -63 156 -63 c 0
 200 -63 249 -87 291 -121 c 1
 298 -102 301 -84 301 -67 c 0
 301 7 273 94 199 94 c 0
 168 94 129 83 115 83 c 0
 101 83 111 100 110 101 c 1
 113 109 125 131 137 151 c 2
 261 354 l 2
 264 358 267 363 252 364 c 0
 221 365 189 368 158 368 c 0
 151 368 143 367 136 367 c 0
 116 366 85 337 65 311 c 0
 60 305 48 286 38 286 c 0
 29 286 33 300 37 308 c 0
 45 327 49 380 49 405 c 0
 49 415 55 416 59 416 c 0
 62 416 68 412 74 407 c 0
 79 403 103 402 122 402 c 2
 194 402 l 2
 256 402 310 403 363 404 c 0
 368 404 372 396 370 392 c 0
 360 374 353 363 340 343 c 0
 288 263 261 218 215 133 c 0
 210 123 216 120 224 120 c 0
 231 120 239 122 241 122 c 0
 323 122 386 55 386 -31 c 0
 386 -74 369 -123 339 -167 c 1
274 -158 m 1
 233 -124 183 -97 130 -97 c 0
 86 -97 69 -126 69 -154 c 0
 69 -214 95 -245 140 -245 c 0
 200 -245 247 -206 274 -158 c 1
EndSplineSet
Validated: 1
EndChar
StartChar: uni0298
Encoding: 664 664 1854
Width: 675
VWidth: 0
Flags: HMW
LayerCount: 3
Fore
SplineSet
336 382 m 24
 366 382 391 357 391 327 c 24
 391 297 366 272 336 272 c 24
 306 272 281 297 281 327 c 24
 281 357 306 382 336 382 c 24
40 315 m 0
 40 497 165 664 338 664 c 0
 515 664 635 512 635 335 c 0
 635 152 521 -14 338 -14 c 0
 165 -14 40 141 40 315 c 0
331 625 m 0
 196 625 120 485 120 350 c 0
 120 194 196 25 351 25 c 0
 486 25 555 170 555 305 c 0
 555 457 483 625 331 625 c 0
EndSplineSet
Validated: 1
Position2: "rtbd subtable" dx=0 dy=0 dh=-38 dv=0
Position2: "lfbd subtable" dx=-38 dy=0 dh=-38 dv=0
EndChar
StartChar: uni029A
Encoding: 666 666 1768
Width: 461
VWidth: 0
Flags: HMW
LayerCount: 3
Fore
SplineSet
215 17 m 0
 324 17 344 150 344 189 c 0
 344 284 288 383 202 383 c 0
 158 383 117 365 117 318 c 0
 117 259 146 233 173 233 c 0
 192 233 215 247 228 247 c 0
 252 247 260 230 260 215 c 0
 260 202 244 188 228 188 c 0
 206 188 191 199 176 199 c 0
 136 199 110 162 110 114 c 0
 110 66 162 17 215 17 c 0
193 -14 m 0
 88 -14 35 23 35 91 c 0
 35 176 90 197 129 207 c 0
 139 209 138 213 129 214 c 0
 90 220 47 242 47 295 c 0
 47 378 148 414 219 414 c 0
 335 414 426 321 426 213 c 0
 426 96 343 -14 193 -14 c 0
EndSplineSet
Validated: 1
EndChar
StartChar: uni02B1
Encoding: 689 689 2251
Width: 332
VWidth: 0
Flags: HMW
LayerCount: 3
Fore
SplineSet
49 533 m 2
 49 671 134 708 191 708 c 0
 220 708 234 705 256 690 c 16
 262 686 265 681 265 675 c 0
 265 659 245 640 233 640 c 0
 213 640 224 676 169 676 c 0
 129 676 103 650 103 570 c 2
 103 515 l 2
 103 508 105 496 108 493 c 1
 128 507 161 524 202 524 c 0
 244 524 281 498 281 452 c 2
 281 323 l 2
 281 307 296 300 309 297 c 1
 316 294 324 289 324 283 c 0
 324 277 312 273 309 273 c 2
 202 273 l 2
 199 273 187 277 187 283 c 0
 187 289 195 294 202 297 c 1
 215 300 227 307 227 323 c 2
 227 434 l 10
 227 464 200 488 172 488 c 0
 156 488 133 481 120 472 c 0
 107 462 103 454 103 429 c 2
 103 321 l 2
 103 305 114 300 127 297 c 1
 135 294 142 289 142 283 c 0
 142 277 131 273 127 273 c 2
 21 273 l 2
 18 273 6 277 6 283 c 0
 6 289 14 294 21 297 c 1
 34 300 49 305 49 321 c 2
 49 533 l 2
EndSplineSet
EndChar
StartChar: uni02CC
Encoding: 716 716 1873
Width: 155
VWidth: 0
Flags: HMW
LayerCount: 3
Fore
SplineSet
50 7 m 18
 50 15 83 30 92 30 c 0
 100 30 105 22 105 14 c 10
 105 -152 l 18
 105 -159 82 -177 63 -177 c 16
 55 -177 50 -167 50 -158 c 10
 50 7 l 18
EndSplineSet
EndChar
StartChar: uni02CD
Encoding: 717 717 1736
Width: 263
VWidth: 0
Flags: HMW
LayerCount: 3
Fore
SplineSet
231 -141 m 10
 16 -141 l 26
 9 -141 2 -135 2 -129 c 0
 2 -120 8 -91 26 -91 c 26
 249 -91 l 18
 255 -91 262 -96 262 -102 c 0
 262 -111 249 -141 231 -141 c 10
EndSplineSet
Validated: 1
EndChar
StartChar: gravecomb
Encoding: 768 768 2374
Width: 0
VWidth: 0
Flags: HMW
AnchorPoint: "top_accent" 133 550 mark 0
LayerCount: 3
Fore
SplineSet
126 478 m 0
 95 511 8 612 8 626 c 0
 8 642 32 649 57 649 c 0
 67 649 78 641 84 631 c 0
 103 598 165 484 165 469 c 0
 165 460 165 456 156 456 c 0
 148 456 134 469 126 478 c 0
EndSplineSet
Validated: 1
EndChar
StartChar: uni0307
Encoding: 775 775 2380
Width: 0
VWidth: 0
Flags: HMW
AnchorPoint: "top_accent" 111 550 mark 0
LayerCount: 3
Fore
SplineSet
113 597 m 24
 143 597 167 572 167 542 c 24
 167 512 143 487 113 487 c 24
 83 487 57 512 57 542 c 24
 57 572 83 597 113 597 c 24
EndSplineSet
Validated: 1
EndChar
StartChar: dotbelowcomb
Encoding: 803 803 1648
Width: 0
VWidth: 0
Flags: HMW
AnchorPoint: "below_accent" 50 -100 mark 0
LayerCount: 3
Fore
SplineSet
0 -142 m 0
 0 -113 22 -91 50 -91 c 0
 79 -91 101 -113 101 -142 c 0
 101 -170 79 -192 50 -192 c 0
 22 -192 0 -170 0 -142 c 0
EndSplineSet
Validated: 1
Substitution2: "'case' Case-Sensitive Forms lookup 8 subtable" dotbelowcomb.cap
EndChar
StartChar: uni0324
Encoding: 804 804 1743
Width: 0
VWidth: 0
Flags: HMW
AnchorPoint: "below_accent" 188 -100 mark 0
LayerCount: 3
Fore
SplineSet
276 -91 m 0
 301 -91 326 -116 326 -141 c 0
 326 -166 301 -191 276 -191 c 0
 251 -191 226 -166 226 -141 c 0
 226 -116 251 -91 276 -91 c 0
100 -91 m 0
 125 -91 150 -116 150 -141 c 0
 150 -166 125 -191 100 -191 c 0
 75 -191 50 -166 50 -141 c 0
 50 -116 75 -91 100 -91 c 0
EndSplineSet
Validated: 1
Substitution2: "'case' Case-Sensitive Forms lookup 8 subtable" uni0324.cap
EndChar
StartChar: uni0325
Encoding: 805 805 1744
Width: 0
VWidth: 0
Flags: HMW
AnchorPoint: "below_accent" 111 -100 mark 0
LayerCount: 3
Fore
SplineSet
115 -82 m 0
 159 -82 196 -116 196 -160 c 0
 196 -211 153 -249 109 -249 c 0
 65 -249 28 -210 28 -166 c 0
 28 -122 71 -82 115 -82 c 0
66 -161 m 0
 66 -194 88 -221 116 -221 c 0
 144 -221 158 -195 158 -167 c 0
 158 -139 134 -110 106 -110 c 0
 78 -110 66 -133 66 -161 c 0
EndSplineSet
Validated: 1
Substitution2: "'case' Case-Sensitive Forms lookup 8 subtable" uni0325.cap
EndChar
StartChar: uni032E
Encoding: 814 814 1740
Width: 0
VWidth: 0
Flags: HMW
AnchorPoint: "below_accent" 169 -100 mark 0
LayerCount: 3
Fore
SplineSet
92 -106 m 0
 97 -131 119 -165 169 -165 c 0
 219 -165 241 -131 246 -106 c 0
 248 -96 251 -85 261 -85 c 0
 271 -85 276 -96 276 -109 c 0
 276 -159 239 -215 169 -215 c 0
 99 -215 62 -159 62 -109 c 0
 62 -96 67 -85 77 -85 c 0
 87 -85 90 -96 92 -106 c 0
EndSplineSet
Validated: 1
Substitution2: "'case' Case-Sensitive Forms lookup 8 subtable" uni032E.cap
EndChar
StartChar: uni0435
Encoding: 1077 1077 621
Width: 390
VWidth: 0
Flags: HMW
AnchorPoint: "cedilla" 253 8 basechar 0
AnchorPoint: "ogonek" 292 18 basechar 0
AnchorPoint: "below_accent" 214 -100 basechar 0
AnchorPoint: "top_accent" 219 550 basechar 0
LayerCount: 3
Fore
SplineSet
229 414 m 0
 306 414 360 376 360 302 c 0
 360 272 351 257 325 257 c 2
 117 257 l 2
 101 257 92 254 92 220 c 8
 92 130 153 46 243 46 c 16
 268 46 313 57 339 91 c 0
 342 94 347 98 350 98 c 0
 357 98 358 86 356 78 c 0
 346 43 290 -14 198 -14 c 0
 107 -14 30 70 30 203 c 8
 30 316 116 414 229 414 c 0
213 383 m 0
 157 383 111 329 111 303 c 0
 111 295 116 288 130 288 c 2
 212 288 l 10
 241 288 264 289 285 293 c 0
 292 294 295 310 295 321 c 8
 295 361 252 383 213 383 c 0
EndSplineSet
EndChar
StartChar: uni043E
Encoding: 1086 1086 622
Width: 495
VWidth: 0
Flags: HMW
AnchorPoint: "ogonek" 337 18 basechar 0
AnchorPoint: "below_accent" 246 -100 basechar 0
AnchorPoint: "top_accent" 246 550 basechar 0
LayerCount: 3
Fore
SplineSet
237 383 m 0
 201 383 173 374 149 343 c 0
 122 309 117 258 117 210 c 0
 117 111 175 16 255 16 c 0
 300 16 338 32 358 71 c 0
 374 102 378 150 378 189 c 0
 378 284 322 383 237 383 c 0
254 414 m 0
 370 414 460 321 460 213 c 0
 460 96 384 -14 234 -14 c 0
 122 -14 35 70 35 187 c 0
 35 298 131 414 254 414 c 0
EndSplineSet
Validated: 1
EndChar
StartChar: uni0441
Encoding: 1089 1089 624
Width: 377
VWidth: 0
Flags: HMW
AnchorPoint: "cedilla" 240 8 basechar 0
AnchorPoint: "below_accent" 199 -100 basechar 0
AnchorPoint: "top_accent" 230 550 basechar 0
LayerCount: 3
Fore
SplineSet
333 319 m 0
 324 319 313 324 308 329 c 0
 275 365 264 376 214 376 c 8
 141 376 104 299 104 226 c 16
 104 130 167 38 263 38 c 16
 305 38 325 54 351 88 c 0
 354 91 357 93 360 93 c 0
 366 93 372 86 372 79 c 0
 372 42 292 -14 206 -14 c 8
 105 -14 35 77 35 180 c 8
 35 303 123 413 246 413 c 16
 289 413 336 402 366 365 c 0
 369 361 371 357 371 353 c 0
 371 336 343 319 333 319 c 0
EndSplineSet
Validated: 1
EndChar
StartChar: uni0458
Encoding: 1112 1112 632
Width: 212
VWidth: 0
Flags: HMW
LayerCount: 3
Fore
SplineSet
51 564 m 0
 51 593 73 615 101 615 c 0
 130 615 152 593 152 564 c 0
 152 536 130 514 101 514 c 0
 73 514 51 536 51 564 c 0
144 275 m 2
 144 91 l 2
 144 29 143 -72 114 -152 c 0
 89 -220 26 -287 -14 -287 c 0
 -21 -287 -35 -284 -35 -277 c 0
 -35 -269 -26 -261 -24 -260 c 0
 0 -254 23 -237 42 -197 c 0
 71 -136 71 0 71 69 c 2
 71 279 l 2
 71 315 59 345 25 352 c 0
 20 353 17 359 17 365 c 0
 17 370 20 376 24 377 c 0
 91 393 136 434 144 434 c 0
 148 434 151 432 151 429 c 0
 147 388 144 320 144 275 c 2
EndSplineSet
Validated: 1
EndChar
StartChar: uni0472
Encoding: 1138 1138 1697
Width: 763
VWidth: 0
Flags: HMW
LayerCount: 3
Back
SplineSet
45 320 m 0
 45 501.202 166 664 390 664 c 0
 564 664 718 532 718 335 c 0
 718 155 601 -14 382 -14 c 0
 205 -14 45 130 45 320 c 0
617 372 m 1
 599 525 516 625 375 625 c 0
 235 625 152 504 143 373 c 1
 146 372 150 371 154 371 c 2
 608 371 l 2
 611 371 614 371 617 372 c 1
621 287 m 1
 614 295 605 301 593 301 c 2
 145 301 l 1
 163 151 261 25 395 25 c 0
 540 25 616 126 621 287 c 1
EndSplineSet
Fore
SplineSet
375 625 m 0
 227 625 142 490 142 350 c 0
 142 343 143 335 143 328 c 1
 175 349 237 388 286 388 c 0
 366 388 402 337 482 337 c 0
 540 337 593 350 619 358 c 1
 604 519 520 625 375 625 c 0
45 320 m 0
 45 501 166 664 390 664 c 0
 564 664 718 532 718 335 c 0
 718 155 601 -14 382 -14 c 0
 205 -14 45 130 45 320 c 0
620 335 m 1
 588 314 526 275 477 275 c 0
 397 275 361 326 281 326 c 0
 223 326 170 313 144 305 c 1
 160 153 260 25 395 25 c 0
 545 25 621 134 621 305 c 0
 621 315 620 325 620 335 c 1
EndSplineSet
Validated: 1
Position2: "rtbd subtable" dx=0 dy=0 dh=-38 dv=0
Position2: "lfbd subtable" dx=-38 dy=0 dh=-38 dv=0
EndChar
StartChar: uni0473
Encoding: 1139 1139 1698
Width: 495
VWidth: 0
Flags: HMW
LayerCount: 3
Back
SplineSet
254 414 m 0
 370 414 460 321 460 213 c 0
 460 96 384 -14 234 -14 c 0
 122 -14 35 70 35 187 c 0
 35 298 131 414 254 414 c 0
118 228 m 1
 375 228 l 1
 362 309 310 383 237 383 c 0
 201 383 173 374 149 343 c 0
 125 313 118 270 118 228 c 1
378 191 m 1
 118 191 l 1
 125 99 180 16 255 16 c 0
 300 16 338 32 358 71 c 0
 374 103 378 151 378 191 c 1
EndSplineSet
Fore
SplineSet
254 414 m 0
 370 414 460 321 460 213 c 0
 460 96 384 -14 234 -14 c 0
 122 -14 35 70 35 187 c 0
 35 298 131 414 254 414 c 0
237 383 m 0
 201 383 173 374 149 343 c 0
 122 309 117 258 117 210 c 0
 117 209 117 208 117 207 c 1
 133 224 163 248 190 248 c 0
 223 248 267 219 308 219 c 0
 339 219 361 233 373 236 c 1
 358 314 308 383 237 383 c 0
377 209 m 1
 361 192 332 169 305 169 c 0
 272 169 228 198 187 198 c 0
 154 198 130 182 119 180 c 1
 129 93 183 16 255 16 c 0
 300 16 338 32 358 71 c 0
 374 102 378 150 378 189 c 0
 378 196 378 202 377 209 c 1
EndSplineSet
Validated: 1
EndChar
StartChar: uni0474
Encoding: 1140 1140 1696
Width: 667
VWidth: 0
Flags: HMW
AnchorPoint: "top_accent" 358 710 basechar 0
LayerCount: 3
Back
SplineSet
496 552 m 2xa0
 536 654 574 667 613 667 c 0
 640 667 676 645 676 618 c 0
 676 601 665 556 642 556 c 0
 625 556 600 580 594 580 c 0xc0
 569 580 551 561 537 528 c 10
 351 60 l 10
 339 30 323 -15 316 -15 c 0
 311 -15 297 28 286 56 c 18
 112 522 l 10
 95 568 67 610 33 620 c 0
 11 627 0 633 0 642 c 0
 0 650 12 653 29 653 c 0
 60 653 105 650 151 650 c 0
 191 650 233 652 253 652 c 0
 270 652 282 649 282 641 c 0
 282 632 272 627 249 621 c 0
 212 612 183 565 206 504 c 2
 322 197 l 2
 329 178 335 169 340 169 c 0
 345 169 351 178 358 197 c 2
 496 552 l 2xa0
EndSplineSet
Fore
SplineSet
496 552 m 2
 536 654 574 667 613 667 c 0
 640 667 676 645 676 618 c 0
 676 601 665 556 642 556 c 0
 625 556 600 580 594 580 c 0
 569 580 551 561 537 528 c 10
 351 60 l 10
 339 30 323 -15 316 -15 c 0
 311 -15 297 28 286 56 c 18
 112 522 l 10
 95 568 67 610 33 620 c 0
 11 627 0 633 0 642 c 0
 0 650 12 653 29 653 c 0
 60 653 105 650 151 650 c 0
 191 650 233 652 253 652 c 0
 270 652 282 649 282 641 c 0
 282 632 272 625 249 621 c 0
 218 615 185 608 185 574 c 0
 185 565 187 555 192 543 c 2
 322 197 l 2
 329 178 335 169 340 169 c 0
 345 169 351 178 358 197 c 2
 496 552 l 2
EndSplineSet
Validated: 1
Position2: "rtbd subtable" dx=0 dy=0 dh=-34 dv=0
Position2: "lfbd subtable" dx=-34 dy=0 dh=-34 dv=0
EndChar
StartChar: uni04D5
Encoding: 1237 1237 982
Width: 544
VWidth: 0
Flags: HM
LayerCount: 3
Fore
SplineSet
120 332 m 0
 117 327 116 320 116 313 c 0
 116 308 117 304 117 299 c 0
 117 285 61 264 48 264 c 0
 42 264 40 270 40 273 c 0
 40 294 55 320 80 342 c 0
 111 370 176 414 229 414 c 0
 249 414 284 395 292 381 c 0
 295 375 297 375 304 380 c 0
 328 397 378 413 411 413 c 0
 463 413 528 383 528 318 c 0
 528 296 518 291 504 284 c 0
 491 277 354 218 320 203 c 0
 314 200 309 190 309 185 c 2
 309 129 l 2
 309 63 353 46 397 46 c 0
 437 46 476 57 508 94 c 0
 511 97 514 98 517 98 c 0
 524 98 530 93 530 87 c 0
 530 86 530 84 529 83 c 0
 485 19 442 -14 366 -14 c 0
 327 -14 288 0 257 26 c 0
 254 29 246 38 244 38 c 0
 242 38 239 37 236 34 c 0
 220 22 189 -13 121 -14 c 0
 80 -14 35 26 35 65 c 0
 35 107 59 133 108 155 c 10
 212 202 l 18
 238 214 241 217 241 233 c 2
 241 299 l 26
 241 334 218 365 181 365 c 0
 157 365 128 346 120 332 c 0
310 321 m 1
 310 254 l 2
 310 244 320 242 325 244 c 0
 374 264 433 284 452 292 c 0
 458 294 459 300 459 306 c 0
 459 315 456 325 455 328 c 0
 440 365 415 378 385 378 c 0
 368 378 311 356 310 321 c 1
115 87 m 1
 115 49 145 32 164 32 c 0
 190 32 210 45 226 59 c 0
 233 65 240 71 240 96 c 2
 240 148 l 2
 240 164 240 172 232 172 c 0
 216 172 117 139 115 87 c 1
EndSplineSet
Validated: 1
EndChar
StartChar: uni051B
Encoding: 1307 1307 1989
Width: 522
VWidth: 0
Flags: HMW
LayerCount: 3
Fore
SplineSet
410 392 m 0
 424 392 429 402 436 417 c 0
 437 418 440 421 443 421 c 0
 449 421 459 416 459 411 c 0
 459 398 447 352 447 295 c 2
 447 -220 l 2
 447 -247 479 -252 499 -258 c 0
 510 -262 522 -266 522 -276 c 0
 522 -284 510 -285 502 -285 c 0
 462 -285 448 -280 412 -280 c 0
 377 -280 371 -285 331 -285 c 0
 324 -285 311 -284 311 -276 c 0
 311 -266 323 -262 334 -258 c 0
 354 -252 377 -247 377 -220 c 2
 377 -5 l 2
 377 18 375 25 371 25 c 0
 368 25 365 23 362 20 c 0
 345 5 298 -14 235 -14 c 0
 131 -14 35 54 35 178 c 0
 35 319 135 414 282 414 c 0
 350 414 405 392 410 392 c 0
257 382 m 0
 185 382 117 320 117 205 c 0
 117 72 212 24 272 24 c 0
 306 24 333 28 358 47 c 0
 378 61 378 124 378 171 c 0
 378 207 378 250 377 275 c 0
 375 335 323 382 257 382 c 0
EndSplineSet
Validated: 1
Position2: "lfbd subtable" dx=-26 dy=0 dh=-26 dv=0
EndChar
StartChar: uni051D
Encoding: 1309 1309 1991
Width: 685
VWidth: 0
Flags: HMW
LayerCount: 3
Fore
SplineSet
614 312 m 26
 477 -16 l 2
 475 -20 472 -23 468 -23 c 0
 465 -23 462 -20 460 -16 c 2
 356 242 l 2
 352 252 349 255 343 241 c 2
 234 -16 l 2
 232 -20 229 -23 226 -23 c 0
 223 -23 220 -20 219 -16 c 2
 80 329 l 10
 70 355 48 372 28 378 c 0
 17 382 5 386 5 396 c 0
 5 404 18 405 25 405 c 0
 31 405 98 400 98 400 c 0
 98 400 174 405 181 405 c 0
 186 405 201 404 201 396 c 0
 201 386 189 382 178 378 c 0
 164 374 157 357 157 338 c 0
 157 329 159 320 162 312 c 2
 238 116 l 2
 243 102 247 103 253 117 c 2
 319 278 l 2
 323 289 325 299 325 308 c 0
 325 345 296 372 275 378 c 0
 264 381 252 386 252 396 c 0
 252 404 264 405 272 405 c 0
 290 405 310 400 347 400 c 0
 384 400 409 405 431 405 c 0
 438 405 451 404 451 396 c 0
 451 386 439 382 428 378 c 0
 413 373 394 366 394 342 c 0
 394 334 396 324 401 312 c 2
 476 119 l 2
 482 105 486 104 492 118 c 2
 568 295 l 2
 573 306 575 317 575 326 c 0
 575 355 555 373 540 378 c 0
 529 382 517 386 517 396 c 0
 517 404 530 405 537 405 c 0
 566 405 576 400 612 400 c 0
 649 400 648 405 670 405 c 0
 678 405 690 404 690 396 c 0
 690 386 678 382 667 378 c 0
 647 372 627 342 614 312 c 26
EndSplineSet
Validated: 1
Position2: "rtbd subtable" dx=0 dy=0 dh=-22 dv=0
Position2: "lfbd subtable" dx=-22 dy=0 dh=-22 dv=0
EndChar
StartChar: uni1D49
Encoding: 7497 7497 668
Width: 232
VWidth: 0
Flags: HMW
LayerCount: 3
Fore
SplineSet
9 390 m 8
 9 464 71 524 145 524 c 16
 185 524 225 500 225 460 c 8
 225 444 224 426 214 421 c 0
 205 417 185 415 167 415 c 18
 72 415 l 2
 64 415 63 399 63 389 c 8
 63 347 96 313 138 313 c 16
 166 313 184 323 204 343 c 16
 205 344 206 344 208 344 c 0
 216 344 229 332 226 327 c 0
 208 299 168 271 126 271 c 8
 61 271 9 325 9 390 c 8
70 448 m 0
 70 444 74 444 77 444 c 2
 118 444 l 10
 137 444 153 445 166 449 c 8
 174 451 174 464 174 469 c 0
 174 491 154 497 134 497 c 0
 98 497 70 467 70 448 c 0
EndSplineSet
Validated: 1
EndChar
StartChar: uni1D4F
Encoding: 7503 7503 670
Width: 326
VWidth: 0
Flags: HMW
LayerCount: 3
Fore
SplineSet
104 697 m 2
 107 697 108 694 108 689 c 0
 108 676 102 649 102 612 c 2
 102 424 l 2
 102 421 103 420 105 420 c 0
 111 420 122 428 128 433 c 0
 163 461 175 471 186 481 c 0
 190 484 195 495 184 497 c 0
 182 498 171 504 171 509 c 0
 171 518 182 519 185 519 c 10
 277 519 l 2
 279 519 284 512 284 510 c 0
 284 505 279 498 273 497 c 0
 257 494 240 489 228 482 c 0
 220 477 185 452 154 427 c 0
 151 425 150 420 156 413 c 0
 189 374 228 336 242 325 c 1
 256 312 281 301 294 297 c 0
 301 295 309 288 309 282 c 0
 309 276 297 273 294 273 c 2
 177 273 l 2
 174 273 162 276 162 282 c 0
 162 296 191 298 191 310 c 0
 191 312 190 316 187 319 c 2
 108 398 l 2
 106 400 102 399 102 394 c 0
 102 383 101 372 101 360 c 0
 101 348 102 336 102 322 c 0
 102 306 108 301 121 297 c 0
 128 295 136 288 136 282 c 0
 136 276 124 273 121 273 c 2
 24 273 l 2
 21 273 9 276 9 282 c 0
 9 288 17 295 24 297 c 0
 37 301 48 306 48 322 c 2
 48 605 l 2
 48 614 44 645 23 649 c 8
 14 651 13 671 22 673 c 16
 55 680 82 690 103 697 c 1
 104 697 l 2
EndSplineSet
Validated: 1
EndChar
StartChar: uni1D52
Encoding: 7506 7506 672
Width: 309
VWidth: 0
Flags: HMW
LayerCount: 3
Fore
SplineSet
149 493 m 0
 104 493 88 448 88 402 c 0
 88 347 116 297 160 297 c 0
 204 297 221 341 221 389 c 0
 221 441 194 493 149 493 c 0
160 524 m 0
 225 524 284 469 284 404 c 0
 284 334 238 268 148 268 c 0
 81 268 25 316 25 388 c 0
 25 462 86 524 160 524 c 0
EndSplineSet
Validated: 1
EndChar
StartChar: uni1E9C
Encoding: 7836 7836 1856
Width: 265
VWidth: 0
Flags: HMW
LayerCount: 3
Fore
SplineSet
160 69 m 2
 160 41 183 30 203 24 c 0
 214 20 226 16 226 6 c 0
 226 -2 213 -3 206 -3 c 0
 205 -3 204 -3 203 -3 c 0
 164 -3 160 2 125 2 c 0
 90 2 86 -3 47 -3 c 0
 46 -3 45 -3 44 -3 c 0
 37 -3 24 -2 24 6 c 0
 24 16 36 20 47 24 c 0
 67 30 90 41 90 69 c 2
 90 317 l 1
 36 288 l 2
 28 284 16 296 16 304 c 0
 16 313 24 319 29 322 c 2
 90 355 l 1
 90 402 l 2
 90 633 221 706 308 706 c 0
 353 706 373 705 402 681 c 16
 413 672 418 660 418 647 c 0
 418 630 411 606 384 606 c 0
 355 606 345 665 266 665 c 0
 204 665 160 610 160 475 c 2
 160 393 l 1
 226 427 l 2
 228 428 231 429 233 429 c 0
 239 429 244 424 244 409 c 0
 244 402 235 394 226 389 c 2
 160 355 l 1
 160 69 l 2
EndSplineSet
Validated: 1
Substitution2: "Single Substitution lookup 105 subtable" uni1E9C.short
Substitution2: "Single Substitution lookup 104 subtable" uni1E9C.short
Substitution2: "Single Substitution lookup 103 subtable" uni1E9C.short
EndChar
StartChar: uni1E9D
Encoding: 7837 7837 1857
Width: 295
VWidth: 0
Flags: HMW
LayerCount: 3
Fore
SplineSet
384 606 m 0
 355 606 345 665 266 665 c 0
 218 665 182 632 167 556 c 1
 290 556 l 2
 296 556 303 550 303 544 c 0
 303 524 287 520 272 520 c 2
 162 520 l 1
 161 506 160 491 160 475 c 2
 160 69 l 2
 160 41 183 30 203 24 c 0
 214 20 226 16 226 6 c 0
 226 -2 213 -3 206 -3 c 0
 205 -3 204 -3 203 -3 c 0
 164 -3 160 2 125 2 c 0
 90 2 86 -3 47 -3 c 0
 46 -3 45 -3 44 -3 c 0
 37 -3 24 -2 24 6 c 0
 24 16 36 20 47 24 c 0
 67 30 90 41 90 69 c 2
 90 350 l 1
 77 350 59 350 38 352 c 0
 34 353 25 362 25 369 c 0
 25 372 29 375 31 376 c 0
 61 384 71 392 90 402 c 1
 90 447 95 486 104 520 c 1
 44 520 l 2
 37 520 30 526 30 532 c 0
 30 541 41 556 54 556 c 2
 115 556 l 1
 157 667 244 706 308 706 c 0
 353 706 372 704 402 681 c 0
 413 672 418 660 418 647 c 0
 418 630 411 606 384 606 c 0
EndSplineSet
Validated: 1
Substitution2: "Single Substitution lookup 105 subtable" uni1E9D.short
Substitution2: "Single Substitution lookup 104 subtable" uni1E9D.short
Substitution2: "Single Substitution lookup 103 subtable" uni1E9D.short
EndChar
StartChar: uni1FBD
Encoding: 8125 8125 687
Width: 240
Flags: HMW
LayerCount: 3
Back
SplineSet
-38 733 m 0
 -38 747 -27 761 -19 768 c 0
 -3 781 8 789 24 789 c 0
 34 789 38 774 38 757 c 0
 38 705 7 618 -9 582 c 0
 -14 570 -23 557 -28 557 c 0
 -33 557 -35 571 -35 580 c 0
 -34 601 -34 619 -34 637 c 0
 -34 673 -38 732 -38 733 c 0
EndSplineSet
Fore
Refer: 35 8217 N 1 0 0 1 0 0 2
Validated: 1
EndChar
StartChar: uni1FBE
Encoding: 8126 8126 2320
Width: 221
Flags: HMW
LayerCount: 3
Fore
SplineSet
150 343 m 0
 150 307 125 155 125 95 c 0
 125 70 139 64 153 64 c 0
 174 64 185 78 188 78 c 0
 197 78 198 73 198 62 c 0
 198 28 171 -14 121 -14 c 0
 87 -14 68 19 67 86 c 2
 65 332 l 2
 63 374 73 418 111 418 c 16
 140 418 150 391 150 343 c 0
EndSplineSet
Validated: 1
EndChar
StartChar: endash
Encoding: 8211 8211 74
Width: 550
VWidth: 0
Flags: HMW
LayerCount: 3
Fore
SplineSet
74 239 m 26
 487 239 l 18
 493 239 500 233 500 227 c 0
 500 207 485 185 469 185 c 26
 64 185 l 26
 57 185 50 191 50 197 c 0
 50 206 55 239 74 239 c 26
EndSplineSet
Validated: 1
Substitution2: "Single Substitution lookup 111 subtable" endash.cap
Substitution2: "'case' Case-Sensitive Forms lookup 8 subtable" endash.cap
Position2: "rtbd subtable" dx=0 dy=0 dh=-165 dv=0
Position2: "lfbd subtable" dx=-165 dy=0 dh=-165 dv=0
EndChar
StartChar: quotesinglbase
Encoding: 8218 8218 31
Width: 242
VWidth: 0
Flags: HMW
LayerCount: 3
Fore
SplineSet
111 29 m 0
 82 32 64 49 64 71 c 0
 64 98 90 117 119 117 c 0
 167 117 202 76 202 20 c 0
 202 -81 111 -145 60 -147 c 1
 58 -147 l 2
 46 -147 40 -142 40 -136 c 0
 40 -131 45 -126 54 -124 c 0
 97 -115 150 -85 150 -15 c 0
 150 1 133 27 111 29 c 0
EndSplineSet
Validated: 1
Position2: "rtbd subtable" dx=0 dy=0 dh=-96 dv=0
Position2: "lfbd subtable" dx=-96 dy=0 dh=-96 dv=0
EndChar
StartChar: daggerdbl
Encoding: 8225 8225 1106
Width: 440
VWidth: 0
Flags: HMW
LayerCount: 3
Fore
SplineSet
266 163 m 0
 266 148 235 125 235 97 c 16
 235 92 241 79 246 79 c 8
 295 79 322 99 371 99 c 8
 389 99 400 83 400 64 c 8
 400 46 389 29 371 29 c 16
 329 29 298 49 250 49 c 16
 243 49 235 46 235 39 c 16
 235 -26 255 -23 255 -88 c 8
 255 -106 237 -118 220 -118 c 0
 203 -118 185 -112 185 -88 c 8
 185 -38 205 -11 205 39 c 16
 205 45 200 49 194 49 c 16
 152 49 122 29 75 29 c 16
 52 29 40 41 40 64 c 8
 40 82 50 99 71 99 c 8
 118 99 149 79 191 79 c 8
 200 79 205 91 205 96 c 8
 205 125 174 147 174 163 c 0
 174 173 201 197 201 232 c 2
 201 285 l 2
 201 315 174 343 174 350 c 0
 174 365 205 388 205 417 c 16
 205 422 199 435 194 435 c 8
 145 435 118 415 69 415 c 8
 51 415 40 431 40 450 c 8
 40 468 51 485 69 485 c 16
 111 485 142 465 190 465 c 16
 197 465 205 468 205 475 c 16
 205 540 185 536 185 601 c 8
 185 619 203 630 220 630 c 0
 237 630 255 625 255 601 c 8
 255 551 235 525 235 475 c 16
 235 469 240 465 246 465 c 16
 288 465 322 485 371 485 c 16
 394 485 400 473 400 450 c 8
 400 433 396 415 375 415 c 8
 325 415 291 435 249 435 c 8
 240 435 235 423 235 418 c 8
 235 389 266 366 266 350 c 0
 266 340 239 320 239 285 c 2
 239 232 l 2
 239 202 266 170 266 163 c 0
EndSplineSet
Validated: 1
Substitution2: "sups subtable" daggerdbl.sups
Substitution2: "sinf subtable" daggerdbl.sinf
Substitution2: "ordn subtable" daggerdbl.ordn
Substitution2: "subs subtable" daggerdbl.subs
EndChar
StartChar: uni203D
Encoding: 8253 8253 1019
Width: 387
VWidth: 0
Flags: HMW
LayerCount: 3
Fore
SplineSet
180 106 m 0
 213 106 240 79 240 46 c 0
 240 13 213 -14 180 -14 c 0
 147 -14 120 13 120 46 c 0
 120 79 147 106 180 106 c 0
232 625 m 1
 294 576 345 470 345 415 c 0
 345 366 321 347 301 336 c 0
 257 312 243 304 211 283 c 0
 183 265 182 236 181 204 c 0
 181 194 176 181 166 181 c 0
 159 181 148 194 144 210 c 0
 138 232 128 251 128 296 c 0
 128 312 135 325 149 338 c 1
 142 418 134 508 130 572 c 1
 114 580 100 603 100 625 c 0
 100 642 118 657 134 660 c 1
 143 677 160 684 180 685 c 0
 181 685 182 685 183 685 c 0
 210 685 232 669 232 633 c 2
 232 625 l 1
229 566 m 1
 225 509 217 442 210 377 c 1
 229 387 l 2
 257 401 290 429 290 458 c 0
 290 509 270 550 229 566 c 1
EndSplineSet
EndChar
StartChar: uni2071
Encoding: 8305 8305 743
Width: 156
VWidth: 0
Flags: HMW
LayerCount: 3
Fore
SplineSet
39 623 m 0
 39 641 57 658 75 658 c 0
 94 658 112 641 112 623 c 0
 112 606 94 589 75 589 c 0
 57 589 39 606 39 623 c 0
104 320 m 2
 104 304 123 302 136 298 c 0
 143 296 151 289 151 283 c 0
 151 277 139 273 136 273 c 2
 22 273 l 2
 19 273 7 277 7 283 c 0
 7 289 15 296 22 298 c 0
 35 302 52 304 52 320 c 2
 52 426 l 2
 52 447 45 465 23 469 c 0
 18 470 15 477 15 483 c 0
 15 489 17 494 22 495 c 0
 56 503 70 517 92 530 c 1
 96 530 l 2
 102 530 112 529 112 527 c 0
 110 513 104 486 104 434 c 2
 104 320 l 2
EndSplineSet
Validated: 1
EndChar
StartChar: uni2080
Encoding: 8320 8320 755
Width: 300
VWidth: 0
Flags: HMW
LayerCount: 3
Fore
SplineSet
149 147 m 8
 87 147 75 68 75 6 c 0
 75 -65 82 -158 153 -158 c 16
 219 -158 225 -72 225 -6 c 16
 225 61 216 147 149 147 c 8
160 172 m 16
 241 172 285 87 285 6 c 16
 285 -86 234 -180 142 -180 c 8
 58 -180 15 -89 15 -5 c 8
 15 84 71 172 160 172 c 16
EndSplineSet
Validated: 1
EndChar
StartChar: uni2086
Encoding: 8326 8326 761
Width: 300
VWidth: 0
Flags: HMW
LayerCount: 3
Fore
SplineSet
221 -78 m 0
 221 -45 209 -10 176 -10 c 0
 161 -10 148 -14 137 -22 c 0
 132 -26 127 -30 122 -30 c 0
 116 -30 114 -24 114 -20 c 0
 114 -12 117 -7 124 -2 c 1
 136 10 171 32 193 32 c 0
 257 32 273 -6 273 -46 c 0
 273 -104 229 -182 145 -182 c 0
 64 -182 27 -134 27 -67 c 0
 27 15 73 67 95 88 c 0
 125 116 175 148 248 166 c 0
 252 166 258 161 256 156 c 24
 252 147 241 142 237 140 c 0
 183 119 89 62 89 -70 c 0
 89 -130 124 -162 163 -162 c 0
 200 -162 221 -134 221 -78 c 0
EndSplineSet
Validated: 1
EndChar
StartChar: uni2092
Encoding: 8338 8338 771
Width: 309
VWidth: 0
Flags: HMW
LayerCount: 3
Fore
SplineSet
149 42 m 0
 104 42 86 -1 86 -47 c 0
 86 -102 116 -150 160 -150 c 0
 204 -150 223 -108 223 -60 c 0
 223 -8 194 42 149 42 c 0
160 75 m 0
 225 75 284 20 284 -45 c 0
 284 -115 238 -181 148 -181 c 0
 81 -181 25 -133 25 -61 c 0
 25 13 86 75 160 75 c 0
EndSplineSet
Validated: 1
EndChar
StartChar: uni2094
Encoding: 8340 8340 2250
Width: 235
VWidth: 0
Flags: HMW
LayerCount: 3
Fore
SplineSet
225 -43 m 0
 225 -136 163 -179 90 -179 c 0
 49 -179 9 -148 9 -109 c 0
 9 -66 18 -66 38 -66 c 18
 161 -64 l 2
 169 -64 170 -64 170 -54 c 0
 170 -15 145 35 90 36 c 0
 68 36 54 27 34 11 c 0
 33 10 32 10 30 10 c 0
 22 10 9 22 12 27 c 0
 30 55 59 78 108 78 c 0
 166 78 225 29 225 -43 c 0
165 -97 m 0
 165 -93 161 -93 158 -93 c 2
 83 -93 l 10
 71 -93 63 -99 63 -118 c 0
 63 -140 80 -152 100 -152 c 0
 131 -152 165 -125 165 -97 c 0
EndSplineSet
Validated: 1
EndChar
StartChar: uni20B2
Encoding: 8370 8370 2471
Width: 729
VWidth: 0
Flags: HMW
LayerCount: 3
Fore
SplineSet
360 687 m 10
 360 709 400 718 406 718 c 0
 413 718 420 712 420 705 c 18
 420 -72 l 10
 420 -93 381 -96 372 -96 c 0
 366 -96 360 -89 360 -82 c 18
 360 687 l 10
621 624 m 0
 627 582 632 538 632 512 c 0
 632 502 625 492 617 492 c 8
 603 492 598 507 594 519 c 0
 586 540 579 553 563 572 c 0
 550 588 499 625 404 625 c 8
 249 625 144 482 144 324 c 0
 144 134 273 23 406 23 c 0
 483 23 516 48 528 60 c 0
 543 75 558 102 558 137 c 0
 558 154 560 177 560 195 c 0
 560 209 559 220 555 225 c 0
 538 247 502 256 482 256 c 0
 477 256 462 263 462 273 c 0
 462 283 477 290 482 290 c 8
 521 290 528 286 583 286 c 8
 618 286 636 290 672 290 c 0
 677 290 693 287 693 274 c 0
 693 265 677 257 672 256 c 0
 643 248 634 234 630 207 c 0
 626 178 625 157 625 132 c 2
 625 105 l 10
 625 98 628 95 631 89 c 24
 635 82 644 77 644 72 c 0
 644 67 644 55 630 53 c 0
 610 50 519 -14 392 -14 c 8
 207 -14 45 126 45 311 c 0
 45 509 214 663 413 663 c 16
 463 663 619 639 621 624 c 0
EndSplineSet
Validated: 5
EndChar
StartChar: uni2113
Encoding: 8467 8467 779
Width: 328
VWidth: 0
Flags: HMW
LayerCount: 3
Fore
SplineSet
24 277 m 0
 15 277 8 279 8 286 c 16
 8 292 9 298 15 301 c 0
 58 320 269 440 269 590 c 0
 269 628 261 675 223 675 c 0
 159 675 154 590 154 526 c 18
 154 217 l 2
 154 59 173 30 219 30 c 0
 265 30 287 59 300 97 c 0
 303 105 308 107 317 107 c 0
 322 107 322 95 322 91 c 0
 322 40 258 -14 193 -14 c 0
 108 -14 84 38 84 195 c 2
 84 428 l 2
 84 572 115 705 239 705 c 0
 288 705 314 653 314 604 c 0
 314 434 53 277 24 277 c 0
EndSplineSet
Validated: 5
EndChar
StartChar: uni2197
Encoding: 8599 8599 1656
Width: 810
VWidth: 0
Flags: HMW
LayerCount: 3
Fore
SplineSet
79 -148 m 0
 69 -148 46 -143 46 -131 c 0
 46 -127 48 -123 50 -121 c 10
 641 470 l 1
 592 471 531 478 470 505 c 0
 466 507 464 509 464 512 c 0
 464 520 482 530 494 530 c 2
 535 530 l 2
 603 530 671 533 740 555 c 0
 745 557 750 558 753 558 c 0
 759 558 762 554 762 548 c 0
 762 545 761 541 760 537 c 0
 738 468 735 400 735 332 c 2
 735 291 l 2
 735 279 725 261 716 261 c 0
 713 261 711 263 709 267 c 0
 682 328 674 390 673 437 c 1
 96 -141 l 18
 91 -146 85 -148 79 -148 c 0
EndSplineSet
Validated: 1
EndChar
StartChar: uni219F
Encoding: 8607 8607 2506
Width: 438
VWidth: 0
Flags: MW
LayerCount: 3
Fore
SplineSet
392 421 m 0
 391 421 390 421 388 422 c 0
 326 446 276 484 242 517 c 1
 242 430.753 l 1
 281.205 362.808 333.758 310.403 388 258 c 0
 394 252 399 240 399 231 c 0
 399 225 397 221 392 221 c 0
 391 221 390 221 388 222 c 0
 326 246 276 284 242 317 c 1
 242 -149 l 2
 242 -166 226 -174 210 -180 c 0
 209 -180 208 -181 207 -181 c 0
 201 -181 196 -173 196 -167 c 2
 196 317 l 1
 160 283 112 245 50 221 c 0
 48 220 47 220 46 220 c 0
 41 220 39 224 39 230 c 0
 39 239 44 251 50 257 c 0
 104.242 309.403 156.795 361.808 196 429.753 c 1
 196 517 l 1
 160 483 112 445 50 421 c 0
 48 420 47 420 46 420 c 0
 41 420 39 424 39 430 c 0
 39 439 44 451 50 457 c 0
 109 514 166 571 206 648 c 0
 212 661 213 661 219 661 c 0
 225 661 227 658 232 649 c 0
 272 572 329 515 388 458 c 0
 394 452 399 440 399 431 c 0
 399 425 397 421 392 421 c 0
EndSplineSet
Validated: 1
EndChar
StartChar: arrowdblleft
Encoding: 8656 8656 2508
Width: 1000
VWidth: 0
Flags: MW
LayerCount: 3
Fore
SplineSet
215.195 339 m 1
 205.567 326.711 195.398 315.293 184.5 305 c 0
 177.351 299 177.351 298 177.351 292 c 0
 177.351 286 179 284 183.95 279 c 0
 194.848 268.707 205.017 257.289 214.645 245 c 1
 937 245 l 2
 943 245 951 240 951 234 c 0
 951 233 950 232 950 231 c 0
 944 215 936 199 919 199 c 2
 246.336 199 l 1
 261.197 174.932 275.099 149.163 289 123 c 0
 290 121 290 120 290 119 c 0
 290 114 286 112 280 112 c 0
 271 112 259 117 253 123 c 0
 196 182 139 239 62 279 c 0
 53 284 50 286 50 292 c 0
 50 298 50 299 63 305 c 0
 140 345 197 402 254 461 c 0
 260 467 272 472 281 472 c 0
 287 472 291 470 291 465 c 0
 291 464 291 463 289.55 461 c 0
 275.648 434.837 261.747 409.068 246.886 385 c 1
 937 385 l 2
 943 385 951 380 951 374 c 0
 951 373 950 372 950 371 c 0
 944 355 936 339 919 339 c 2
 215.195 339 l 1
EndSplineSet
Validated: 1
EndChar
StartChar: arrowdblup
Encoding: 8657 8657 2513
Width: 438
VWidth: 0
Flags: MW
LayerCount: 3
Fore
SplineSet
172 494.805 m 1
 184.289 504.433 195.707 515.603 206 526.5 c 0
 212 533.649 213 533.649 219 533.649 c 0
 225 533.649 227 532 232 527.05 c 0
 242.293 516.152 253.711 504.983 266 495.354 c 1
 266 -167 l 2
 266 -173 271 -181 277 -181 c 0
 278 -181 279 -180 280 -180 c 0
 296 -174 312 -166 312 -149 c 2
 312 461.664 l 1
 336.068 446.803 360.725 433.577 388 422 c 0
 390.062 421.125 391 421 392 421 c 0
 397 421 399 425 399 431 c 0
 399 440 394 452 388 458 c 0
 329 515 272 572 232 649 c 0
 227 658 225 661 219 661 c 0
 213 661 212 661 206 648 c 0
 166 571 109 514 50 457 c 0
 44 451 39 439 39 430 c 0
 39 424 41 420 46 420 c 0
 47 420 47.7266 420.035 50 421 c 0
 77.2744 432.577 101.932 446.253 126 461.113 c 1
 126 -167 l 2
 126 -173 131 -181 137 -181 c 0
 138 -181 139 -180 140 -180 c 0
 156 -174 172 -166 172 -149 c 2
 172 494.805 l 1
EndSplineSet
Validated: 9
EndChar
StartChar: uni21DA
Encoding: 8666 8666 2509
Width: 1000
VWidth: 0
Flags: MW
LayerCount: 3
Fore
SplineSet
239.945 374 m 1
 225.992 352.387 211.104 332.382 194.536 315 c 1
 937 315 l 2
 943 315 951 310 951 304 c 0
 951 303 950 302 950 301 c 0
 944 285 936 269 919 269 c 2
 194 269 l 1
 193.984 269.002 l 1
 210.553 251.619 225.441 231.614 239.395 210 c 1
 937 210 l 2
 943 210 951 205 951 199 c 0
 951 198 950 197 950 196 c 0
 950 178.624 936.376 164 919 164 c 2
 266.794 164 l 1
 274.291 150.573 281.645 136.841 289 123 c 0
 290 121 290 120 290 119 c 0
 290 114 286 112 280 112 c 0
 271 112 259 117 253 123 c 0
 196 182 139 239 62 279 c 0
 53 284 50 286 50 292 c 0
 50 298 50 299 63 305 c 0
 140 345 197 402 254 461 c 0
 260 467 272 472 281 472 c 0
 287 472 291 470 291 465 c 0
 291 464 291 463 289.55 461 c 0
 282.195 447.159 274.841 433.427 267.344 420 c 1
 937 420 l 2
 943 420 951 415 951 409 c 0
 951 408 950 407 950 406 c 0
 950 388.624 936.376 374 919 374 c 2
 239.945 374 l 1
EndSplineSet
Validated: 1
EndChar
StartChar: openbullet
Encoding: 9702 9702 1558
Width: 310
VWidth: 0
Flags: HMW
LayerCount: 3
Fore
SplineSet
155 435 m 24
 114 435 80 401 80 360 c 24
 80 319 114 285 155 285 c 24
 196 285 230 319 230 360 c 24
 230 401 196 435 155 435 c 24
155 470 m 24
 216 470 265 421 265 360 c 24
 265 299 216 250 155 250 c 24
 94 250 45 299 45 360 c 24
 45 421 94 470 155 470 c 24
EndSplineSet
Validated: 1
EndChar
StartChar: uni2757
Encoding: 10071 10071 2268
Width: 285
VWidth: 0
Flags: HMW
LayerCount: 3
Fore
SplineSet
152 121 m 0
 196 121 228 85 228 46 c 0
 228 2 191 -29 152 -29 c 0
 108 -29 78 7 78 46 c 0
 78 90 113 121 152 121 c 0
86 560 m 0
 86 603 105 651 154 651 c 0
 204 651 220 598 220 562 c 0
 220 471 198 367 183 255 c 0
 180 234 176 203 150 203 c 0
 123 203 120 232 118 255 c 0
 106 371 86 496 86 560 c 0
EndSplineSet
Validated: 1
EndChar
StartChar: uni2C61
Encoding: 11361 11361 2520
Width: 240
VWidth: 0
Flags: HMW
LayerCount: 3
Fore
SplineSet
155 62 m 2
 155 35 178 30 198 24 c 0
 209 20 221 16 221 6 c 0
 221 -2 208 -3 201 -3 c 0
 162 -3 155 2 120 2 c 0
 85 2 78 -3 39 -3 c 0
 32 -3 19 -2 19 6 c 0
 19 16 31 20 42 24 c 0
 62 30 85 35 85 62 c 2
 85 566 l 2
 85 605 72 632 39 639 c 0
 34 640 31 646 31 652 c 0
 31 658 34 663 38 664 c 0
 89 676 122 692 154 704 c 0
 155 704 155 705 156 705 c 0
 159 705 162 701 162 698 c 0
 162 686 155 652 155 562 c 2
 155 62 l 2
214 400 m 2
 220 400 227 394 227 388 c 0
 227 368 212 362 196 362 c 2
 24 362 l 2
 17 362 10 368 10 374 c 0
 10 383 20 400 34 400 c 2
 214 400 l 2
214 330 m 2
 220 330 227 324 227 318 c 0
 227 298 212 292 196 292 c 2
 24 292 l 2
 17 292 10 298 10 304 c 0
 10 313 20 330 34 330 c 2
 214 330 l 2
EndSplineSet
EndChar
StartChar: uni2C65
Encoding: 11365 11365 1943
Width: 399
VWidth: 0
Flags: HMW
LayerCount: 3
Fore
SplineSet
342 32 m 0
 360 32 371 36 382 46 c 0
 388 52 398 45 398 37 c 0
 398 29 356 -14 318 -14 c 0
 261 -14 252 38 244 38 c 0
 231 38 203 -13 121 -14 c 0
 107 -14 93 -10 80 -2 c 1
 55 -47 l 2
 46 -64 29 -65 10 -65 c 0
 -1 -65 -5 -61 -5 -54 c 0
 -5 -53 -3 -46 0 -41 c 2
 43 36 l 1
 38 45 35 55 35 65 c 0
 35 107 59 135 108 155 c 2
 108 155 l 1
 217 353 l 1
 207 361 195 365 181 365 c 0
 157 365 128 347 120 333 c 0
 117 328 116 321 116 314 c 0
 116 309 117 305 117 300 c 0
 117 286 61 265 48 265 c 0
 42 265 40 271 40 274 c 0
 40 295 55 321 80 343 c 0
 111 371 176 414 229 414 c 0
 236 414 243 413 249 411 c 1
 264 438 l 2
 274 457 291 464 313 464 c 0
 320 464 324 458 324 451 c 0
 324 446 317 432 313 424 c 2
 291 384 l 1
 304 368 311 348 311 325 c 2
 306 109 l 2
 306 70 313 32 342 32 c 0
240 290 m 1
 182 186 l 1
 210 197 l 2
 236 208 237 210 238 237 c 2
 240 290 l 1
158 141 m 1
 118 68 l 1
 126 43 149 32 164 32 c 0
 190 32 208 45 224 59 c 0
 231 65 235 74 236 99 c 2
 238 148 l 2
 239 163 237 169 229 169 c 0
 226 169 220 168 215 166 c 0
 191 158 172 150 158 141 c 1
EndSplineSet
Validated: 5
EndChar
StartChar: uni2C6D
Encoding: 11373 11373 1968
Width: 735
VWidth: 0
Flags: HMW
LayerCount: 3
Fore
SplineSet
601 98 m 2
 601 51 630 33 680 24 c 0
 703 20 713 15 713 6 c 0
 713 -2 701 -5 684 -5 c 0
 659 -5 635 1 612 1 c 0
 587 1 560 -6 537 -6 c 0
 521 -6 521 19 521 40 c 0
 521 46 513 54 500 42 c 0
 474 19 427 -15 339 -15 c 0
 169 -15 41 120 41 302 c 0
 41 496 180 663 374 663 c 0
 459 663 540 632 552 632 c 0
 607 632 602 648 659 655 c 0
 676 657 693 649 693 641 c 0
 693 632 688 622 666 613 c 0
 616 593 599 583 599 536 c 2
 601 98 l 2
521 159 m 2
 521 524 l 2
 521 580 449 632 358 632 c 8
 212 632 141 473 141 326 c 8
 141 177 208 16 364 16 c 0
 432 16 521 108 521 159 c 2
EndSplineSet
Validated: 33
EndChar
StartChar: uni2C6F
Encoding: 11375 11375 1947
Width: 684
VWidth: 0
Flags: HMW
LayerCount: 3
Fore
SplineSet
27 652 m 0
 55 652 121 646 166 646 c 0
 205 646 247 647 271 647 c 0
 288 647 300 643 300 635 c 0
 300 626 285 619 267 616 c 0
 223 609 206 593 206 571 c 0
 206 542 229 464 244 414 c 0
 247 404 253 403 271 403 c 2
 462 403 l 2
 468 403 474 407 479 421 c 0
 488 447 519 547 519 560 c 0
 519 589 493 609 461 617 c 0
 438 623 428 628 428 637 c 0
 428 645 440 648 457 648 c 0
 475 648 511 646 548 646 c 0
 592 646 635 652 668 652 c 0
 685 652 697 647 697 639 c 0
 697 630 686 623 664 616 c 0
 630 606 600 589 578 539 c 0
 503 368 458 254 391 69 c 0
 376 27 379 12 377 11 c 0
 365 7 353 4 341 -4 c 0
 327 -13 325 -29 320 -29 c 0
 315 -29 313 -24 310 -15 c 0
 246 188 165 424 132 519 c 0
 104 599 71 612 31 619 c 0
 8 623 -2 633 -2 642 c 0
 -2 650 10 652 27 652 c 0
362 105 m 2
 452 345 l 2
 453 348 454 351 454 353 c 0
 454 360 446 360 433 360 c 2
 278 360 l 2
 268 360 264 360 264 355 c 0
 264 353 265 349 266 345 c 2
 345 106 l 2
 349 94 351 88 354 88 c 0
 356 88 358 94 362 105 c 2
EndSplineSet
Validated: 1
Position2: "rtbd subtable" dx=0 dy=0 dh=-34 dv=0
Position2: "lfbd subtable" dx=-34 dy=0 dh=-34 dv=0
EndChar
StartChar: uni2C76
Encoding: 11382 11382 2522
Width: 330
VWidth: 0
Flags: MW
LayerCount: 3
Fore
SplineSet
82 331 m 2
 82 360 70 374 45 378 c 0
 33 380 22 386 22 396 c 0
 22 404 35 405 42 405 c 0
 82 405 80 400 115 400 c 0
 150 400 155 405 195 405 c 0
 203 405 215 404 215 396 c 0
 215 386 204 380 192 378 c 0
 165 373 152 358 152 331 c 2
 152 238 l 2
 152 219 157 214 163 214 c 2
 233 214 l 2
 254 214 262 227 270 251 c 0
 272 258 278 268 285 268 c 0
 293 268 298 259 297 253 c 0
 296 237 294 213 294 198 c 0
 294 180 297 162 298 143 c 0
 299 137 294 126 288 126 c 8
 276 126 272 146 270 150 c 0
 264 171 249 175 238 177 c 0
 218 179 198 179 177 179 c 0
 158 179 152 180 152 161 c 2
 152 63 l 2
 152 34 175 30 195 24 c 0
 206 20 218 16 218 6 c 0
 218 -2 205 -3 198 -3 c 0
 158 -3 150 2 116 2 c 0
 80 2 76 -3 36 -3 c 0
 29 -3 16 -2 16 6 c 0
 16 16 28 20 39 24 c 0
 59 30 82 35 82 63 c 2
 82 331 l 2
EndSplineSet
EndChar
StartChar: uni2C7A
Encoding: 11386 11386 2525
Width: 495
VWidth: 0
Flags: HMW
LayerCount: 3
Fore
SplineSet
237 383 m 0
 201 383 173 374 149 343 c 0
 122 309 117 258 117 210 c 0
 117 111 175 16 255 16 c 0
 300 16 338 32 358 71 c 0
 374 102 378 150 378 189 c 0
 378 284 322 383 237 383 c 0
254 414 m 0
 370 414 460 321 460 213 c 0
 460 96 384 -14 234 -14 c 0
 122 -14 35 70 35 187 c 0
 35 298 131 414 254 414 c 0
265 157 m 0
 309 157 346 123 346 79 c 0
 346 27 303 -10 259 -10 c 0
 215 -10 178 29 178 73 c 0
 178 117 221 157 265 157 c 0
219 78 m 0
 219 45 238 16 266 16 c 0
 296 16 305 40 305 72 c 0
 305 100 284 130 256 130 c 0
 228 130 219 106 219 78 c 0
EndSplineSet
EndChar
StartChar: uniA731
Encoding: 42801 42801 1901
Width: 373
VWidth: 0
Flags: HMW
AnchorPoint: "top_accent" 193 570 basechar 0
LayerCount: 3
Fore
SplineSet
169 29 m 0
 231 29 244.733398438 62.0615234375 247 104 c 0
 249 141 238 147 179 185 c 0
 127 218 53 250 53 305 c 0
 53 347 102 423 205 423 c 0
 253 423 281 408 296 406 c 8
 304 405 308 397 309 391 c 0
 314 367 320 341 320 317 c 0
 320 311 316 300 312 300 c 0
 308 300 290 307 288 317 c 0
 270 380 221 388 196 388 c 0
 149 388 127 367 127 329 c 0
 127 290 179.427694012 271.761287063 222 248 c 0
 265 224 331 185 331 125 c 0
 331 70 285 -6 172 -6 c 0
 118 -6 89 7 64 12 c 0
 53 14 55 17 53 20 c 0
 45 36 31 90 30 115 c 0
 30 121 42 126 50 126 c 0
 58 126 90 29 169 29 c 0
EndSplineSet
EndChar
StartChar: uniA753
Encoding: 42835 42835 2442
Width: 634
VWidth: 0
Flags: HMW
AnchorPoint: "top_accent" 376 550 basechar 0
LayerCount: 3
Fore
SplineSet
389 17 m 0
 428 17 519 59 519 193 c 0
 519 347 426 369 383 369 c 0
 349 369 322 359 297 340 c 0
 282 329 273 310 271 269 c 0
 271 252 270 229 270 205 c 0
 270 171 271 136 272 115 c 0
 273 97 277 60 296 42 c 0
 311 28 345 17 389 17 c 0
200 102 m 1
 200 287 l 2
 200 302 187 353 154 360 c 0
 149 361 146 367 146 373 c 0
 146 379 149 384 153 385 c 0
 204 397 237 412 269 425 c 0
 270 425 270 426 271 426 c 0
 274 426 277 421 277 417 c 0
 277 405 272 373 272 357 c 0
 272 353 272 349 273 348 c 1
 292 367 372 414 435 414 c 0
 538 414 599 319 599 225 c 0
 599 106 500 -14 374 -14 c 0
 346 -14 294 0 274 18 c 1
 271 18 270 -27 270 -33 c 2
 270 -220 l 2
 270 -247 308 -252 328 -258 c 0
 339 -262 351 -266 351 -276 c 0
 351 -284 337 -285 329 -285 c 0
 290 -285 270 -280 235 -280 c 0
 200 -280 194 -285 155 -285 c 0
 148 -285 134 -284 134 -276 c 0
 134 -266 146 -262 157 -258 c 0
 177 -252 200 -247 200 -220 c 2
 200 29 l 1
 182 51 156 80 128 80 c 0
 96 80 81 48 81 14 c 0
 81 -49 92 -109 92 -147 c 0
 92 -204 14 -275 -54 -275 c 0
 -84 -275 -109 -259 -109 -239 c 0
 -109 -217 -89 -193 -68 -193 c 0
 -42 -193 -33 -231 -5 -231 c 0
 17 -231 24 -199 24 -170 c 0
 24 -154 10 -67 10 -34 c 0
 10 44 56 116 136 116 c 0
 157 116 179 110 200 102 c 1
EndSplineSet
Validated: 1
EndChar
StartChar: uniA759
Encoding: 42841 42841 2444
Width: 724
VWidth: 0
Flags: HMW
AnchorPoint: "top_accent" 272 550 basechar 0
LayerCount: 3
Fore
SplineSet
257 382 m 0
 185 382 117 320 117 205 c 0
 117 72 212 24 272 24 c 0
 306 24 333 28 358 47 c 0
 378 61 378 124 378 171 c 0
 378 207 378 250 377 275 c 0
 375 335 323 382 257 382 c 0
410 392 m 0
 424 392 429 402 436 417 c 0
 437 418 440 421 443 421 c 0
 449 421 459 416 459 411 c 0
 459 401 452 371 449 332 c 1
 484 371 529 397 584 397 c 0
 639 397 691 363 691 302 c 0
 691 156 585 42 492 -36 c 0
 477 -49 462 -60 447 -72 c 1
 447 -220 l 2
 447 -247 479 -252 499 -258 c 0
 510 -262 522 -266 522 -276 c 0
 522 -284 510 -285 502 -285 c 0
 462 -285 448 -280 412 -280 c 0
 377 -280 371 -285 331 -285 c 0
 324 -285 311 -284 311 -276 c 0
 311 -266 323 -262 334 -258 c 0
 354 -252 377 -247 377 -220 c 2
 377 -117 l 1
 344 -141 307 -169 262 -201 c 0
 251 -209 231 -238 228 -247 c 0
 219 -272 211 -277 200 -277 c 0
 191 -277 167 -254 167 -243 c 0
 167 -228 178 -216 246 -167 c 0
 281 -142 326 -109 377 -69 c 1
 377 -5 l 2
 377 18 375 25 371 25 c 0
 368 25 365 23 362 20 c 0
 345 5 298 -14 235 -14 c 0
 131 -14 35 54 35 178 c 0
 35 319 135 414 282 414 c 0
 350 414 405 392 410 392 c 0
447 271 m 1
 447 -21 l 1
 461 -10 475 2 489 14 c 0
 566 78 613 170 613 284 c 0
 613 331 591 355 555 355 c 0
 518 355 475 311 447 271 c 1
EndSplineSet
Validated: 1
EndChar
StartChar: uniA78D
Encoding: 42893 42893 2536
Width: 723
VWidth: 0
Flags: HMW
AnchorPoint: "below_accent" 376 -100 basechar 0
AnchorPoint: "top_accent" 359 710 basechar 0
LayerCount: 3
Fore
SplineSet
123 551 m 2
 123 597 120 613 70 622 c 0
 47 626 37 633 37 642 c 0
 37 650 49 653 66 653 c 0
 120 653 129 650 169 650 c 24
 210 650 221 653 275 653 c 0
 292 653 304 650 304 642 c 0
 304 633 294 626 271 622 c 0
 221 613 203 590 203 551 c 2
 203 359 l 2
 203 351 211 350 217 350 c 2
 508 350 l 2
 513 350 515 353 515 362 c 2
 515 552 l 2
 515 588 499 613 449 622 c 0
 426 626 416 633 416 642 c 0
 416 650 428 653 445 653 c 0
 499 653 516 650 561 650 c 24
 597 650 598 653 652 653 c 0
 669 653 681 650 681 642 c 0
 681 633 671 626 648 622 c 0
 598 613 595 590 595 552 c 2
 595 100 l 2
 595 51 600 33 650 24 c 0
 673 20 683 15 683 6 c 0
 683 -2 671 -5 654 -5 c 0
 600 -5 591 0 550 0 c 24
 508 0 497 -5 443 -5 c 0
 426 -5 414 -2 414 6 c 0
 414 15 424 20 447 24 c 0
 489 32 515 54 515 97 c 2
 515 287 l 2
 515 294 516 302 510 302 c 2
 208 302 l 2
 123 302 l 2
 123 551 l 2
EndSplineSet
EndChar
StartChar: uniA78E
Encoding: 42894 42894 2537
Width: 276
VWidth: 0
Flags: HMW
AnchorPoint: "below_accent" 146 -100 basechar 0
AnchorPoint: "top_accent" 132 790 basechar 0
LayerCount: 3
Fore
SplineSet
114 62 m 2
 114 265 l 1
 43 268 -14 298 -14 352 c 0
 -14 405 24 443 81 443 c 0
 93 443 104 442 114 439 c 1
 114 566 l 2
 114 605 101 632 68 639 c 0
 63 640 60 646 60 652 c 0
 60 658 63 663 67 664 c 0
 118 676 151 692 183 704 c 0
 184 704 184 705 185 705 c 0
 188 705 191 701 191 698 c 0
 191 686 184 652 184 562 c 0
 184 479 184 395 184 312 c 1
 207 318 229 327 254 342 c 0
 259 345 269 355 276 355 c 0
 285 355 285 347 285 338 c 0
 285 331 237 296 184 277 c 1
 184 62 l 2
 183 -44 l 2
 183 -210 208 -260 252 -260 c 0
 288 -260 302 -238 302 -219 c 0
 302 -201 344 -169 365 -169 c 0
 373 -169 374 -182 374 -195 c 0
 374 -258 311 -288 232 -288 c 0
 154 -288 114 -211 114 -104 c 2
 114 62 l 2
114 307 m 1
 114 333 l 2
 114 375 97 414 64 414 c 0
 49 414 38 399 38 384 c 0
 38 339 63 312 114 307 c 1
EndSplineSet
EndChar
StartChar: uniA7FE
Encoding: 43006 43006 2542
Width: 340
VWidth: 0
Flags: HMW
LayerCount: 3
Fore
SplineSet
130 640 m 2
 130 687 113 703 63 712 c 0
 40 716 30 723 30 732 c 0
 30 740 42 743 59 743 c 0
 113 743 130 740 176 740 c 24
 219 740 231 743 285 743 c 0
 302 743 314 740 314 732 c 0
 314 723 304 716 281 712 c 0
 231 703 210 687 210 640 c 2
 210 98 l 2
 210 51 239 33 289 24 c 0
 312 20 322 15 322 6 c 0
 322 -2 310 -5 293 -5 c 0
 239 -5 222 0 176 0 c 24
 126 0 102 -5 48 -5 c 0
 31 -5 19 -2 19 6 c 0
 19 15 29 20 52 24 c 0
 102 33 130 51 130 98 c 2
 130 640 l 2
EndSplineSet
EndChar
StartChar: uniA7FF
Encoding: 43007 43007 2543
Width: 1232
VWidth: 0
Flags: HMW
LayerCount: 3
Fore
SplineSet
866 56 m 10
 874 27 891 -15 896 -15 c 0
 910 -15 934 66 939 79 c 2
 1107 535 l 18
 1120 571 1156 611 1205 622 c 0
 1228 627 1238 633 1238 642 c 0
 1238 650 1226 653 1209 653 c 0
 1183 653 1134 650 1095 650 c 0
 1057 650 1022 651 996 651 c 0
 979 651 967 648 967 640 c 0
 967 631 986 624 1000 620 c 0
 1024 613 1067 595 1067 579 c 0
 1067 575 1060 551 1059 547 c 2
 938 197 l 2
 930 178 925 169 920 169 c 0
 915 169 908 178 902 197 c 2
 768 656 l 2
 765 665 763 670 758 670 c 0
 753 670 745 658 730 651 c 0
 719 646 710 640 698 636 c 0
 696 635 697 619 694 608 c 24
 691 596 687 587 684 578 c 2
 556 197 l 2
 549 178 543 169 538 169 c 0
 533 169 526 178 520 197 c 2
 388 656 l 2
 385 665 383 670 378 670 c 0
 373 670 365 658 350 651 c 0
 339 646 330 640 318 636 c 0
 316 635 317 619 314 608 c 24
 311 596 307 587 304 578 c 2
 137 108 l 2
 117 57 85 41 51 31 c 0
 29 24 -2 17 -2 8 c 0
 -2 0 30 -5 47 -5 c 0
 80 -5 123 1 167 1 c 0
 204 1 240 -1 258 -1 c 0
 275 -1 287 2 287 10 c 0
 287 19 277 24 254 30 c 0
 223 38 195 58 195 86 c 0
 195 91 196 96 198 102 c 2
 333 542 l 2
 336 553 339 559 341 559 c 0
 344 559 346 553 350 541 c 2
 461 105 l 10
 474 55 509 -15 514 -15 c 0
 528 -15 552 66 557 79 c 2
 713 542 l 2
 717 553 719 559 721 559 c 0
 724 559 726 553 730 541 c 2
 866 56 l 10
EndSplineSet
EndChar
StartChar: Euro.tablining
Encoding: 65591 -1 1042
Width: 480
VWidth: 0
Flags: HMW
LayerCount: 3
Fore
SplineSet
36 354 m 2
 29 354 22 360 22 366 c 0
 22 375 32 390 46 390 c 2
 68 390 l 1
 94 521 185 630 329 630 c 0
 376 630 436 606 446 606 c 0
 455 606 456 589 458 581 c 0
 461 569 463 532 463 501 c 0
 463 492 460 478 450 478 c 0
 439 478 434 486 429 500 c 0
 406 566 377 598 317 598 c 0
 213 598 163 497 149 391 c 1
 353 393 l 2
 360 393 369 386 366 379 c 0
 360 363 352 351 335 351 c 2
 146 353 l 1
 145 344 145 334 145 325 c 0
 145 310 145 295 146 280 c 1
 335 283 l 2
 342 283 351 276 348 269 c 0
 342 253 334 241 317 241 c 2
 149 243 l 1
 161 130 203 20 311 20 c 0
 369 20 410 66 428 106 c 0
 433 118 445 135 452 135 c 0
 460 135 463 120 463 109 c 0
 463 95 456 60 448 34 c 0
 445 24 430 15 424 12 c 0
 402 0 342 -15 288 -15 c 0
 155 -15 82 111 64 244 c 1
 18 244 l 2
 11 244 4 250 4 256 c 0
 4 265 14 278 28 278 c 2
 61 279 l 1
 60 290 60 300 60 310 c 0
 60 325 60 340 62 354 c 1
 36 354 l 2
EndSplineSet
Validated: 1
EndChar
StartChar: Odieresis.deu
Encoding: 65537 -1 925
Width: 763
VWidth: 0
Flags: HMW
LayerCount: 3
Fore
SplineSet
110 710 m 0
 135 710 160 685 160 660 c 0
 160 635 135 610 110 610 c 0
 85 610 60 635 60 660 c 0
 60 685 85 710 110 710 c 0
664 710 m 0
 689 710 714 685 714 660 c 0
 714 635 689 610 664 610 c 0
 639 610 614 635 614 660 c 0
 614 685 639 710 664 710 c 0
45 320 m 0
 45 501 166 664 390 664 c 0
 564 664 718 532 718 335 c 0
 718 155 601 -14 382 -14 c 0
 205 -14 45 130 45 320 c 0
375 625 m 0
 227 625 142 490 142 350 c 0
 142 179 247 25 395 25 c 0
 545 25 621 134 621 305 c 0
 621 495 535 625 375 625 c 0
EndSplineSet
Validated: 1
Substitution2: "c2sc subtable" Odieresis.sc
Position2: "rtbd subtable" dx=0 dy=0 dh=-38 dv=0
Position2: "lfbd subtable" dx=-38 dy=0 dh=-38 dv=0
EndChar
StartChar: bracketright.subs
Encoding: 65657 -1 1170
Width: 242
VWidth: 0
Flags: HMW
LayerCount: 3
Fore
SplineSet
169 398 m 2
 169 -102 l 2
 169 -117 165 -122 149 -122 c 10
 42 -122 l 26
 34 -122 26 -119 26 -111 c 24
 26 -103 33 -100 42 -100 c 2
 111 -100 l 2
 125 -100 129 -99 129 -71 c 2
 129 381 l 2
 129 390 124 399 114 399 c 2
 56 399 l 2
 43 399 26 401 26 410 c 0
 26 415 31 421 37 421 c 26
 153 421 l 2
 167 421 169 410 169 398 c 2
EndSplineSet
Validated: 1
EndChar
StartChar: dagger.subs
Encoding: 65696 -1 1209
Width: 440
VWidth: 0
Flags: HMW
LayerCount: 3
Fore
SplineSet
165 400 m 0
 178 400 198 393 198 375 c 8
 198 330 181 307 181 262 c 16
 181 258 185 252 191 252 c 16
 223 252 243 269 277 269 c 16
 294 269 304 253 304 236 c 8
 304 220 296 203 280 203 c 8
 246 203 226 220 194 220 c 8
 183 220 181 199 181 195 c 8
 181 173 207 156 207 144 c 0
 207 130 179 141 179 -127 c 0
 179 -142 178 -164 165 -164 c 0
 150 -164 149 -143 149 -128 c 0
 149 151 123 130 123 144 c 0
 123 155 149 172 149 194 c 16
 149 198 143 220 139 220 c 8
 104 220 89 203 52 203 c 8
 36 203 26 222 26 236 c 8
 26 252 36 269 52 269 c 16
 84 269 102 252 135 252 c 16
 140 252 149 255 149 262 c 16
 149 311 132 326 132 375 c 8
 132 391 152 400 165 400 c 0
EndSplineSet
Validated: 1
EndChar
StartChar: emdash.cap
Encoding: 66146 -1 2437
Width: 950
VWidth: 0
Flags: HMW
LayerCount: 3
Fore
SplineSet
74 349 m 26
 887 349 l 18
 893 349 900 343 900 337 c 0
 900 317 885 295 869 295 c 26
 64 295 l 26
 57 295 50 301 50 307 c 0
 50 316 55 349 74 349 c 26
EndSplineSet
Validated: 1
EndChar
StartChar: endash.cap
Encoding: 66145 -1 2436
Width: 550
VWidth: 0
Flags: HMW
LayerCount: 3
Fore
SplineSet
74 349 m 26
 487 349 l 18
 493 349 500 343 500 337 c 0
 500 317 485 295 469 295 c 26
 64 295 l 26
 57 295 50 301 50 307 c 0
 50 316 55 349 74 349 c 26
EndSplineSet
Validated: 1
EndChar
StartChar: gravecomb.capstack
Encoding: 66066 -1 2313
Width: 0
VWidth: 0
Flags: HMW
AnchorPoint: "gravestack" 170 710 mark 0
AnchorPoint: "top_accent" 135 710 mark 0
LayerCount: 3
Fore
SplineSet
165 716 m 0
 165 712 160 710 155 710 c 0
 152 710 143 711 137 713 c 0
 106 723 63 738 23 755 c 0
 12 760 5 765 5 770 c 0
 5 781 44 810 55 810 c 0
 60 810 65 808 71 804 c 0
 95 786 142 745 157 731 c 0
 163 725 165 721 165 716 c 0
EndSplineSet
Validated: 1
EndChar
StartChar: nine.tablining
Encoding: 65589 -1 1039
Width: 480
VWidth: 0
Flags: HMW
LayerCount: 3
Fore
SplineSet
253 629 m 0
 350 629 445 515 445 400 c 0
 445 275 392 186 301 87 c 24
 228 7 119 -31 49 -31 c 0
 43 -31 35 -30 35 -24 c 8
 35 -17 42 -13 49 -13 c 0
 109 -13 207 52 271 134 c 24
 335 217 360 292 360 389 c 0
 360 485 293 593 220 593 c 0
 155 593 122 531 122 482 c 0
 122 421 172 357 225 357 c 0
 266 357 280 371 305 383 c 0
 310 385 314 376 312 372 c 0
 305 359 290 345 279 337 c 0
 264 326 224 304 187 304 c 0
 118 304 47 358 47 430 c 0
 47 521 132 629 253 629 c 0
EndSplineSet
Validated: 1
Substitution2: "'pnum' Proportionalziffern lookup 36 subtable" nine.lnum
Substitution2: "'onum' Minuskelziffern lookup 34 subtable" nine.taboldstyle
EndChar
StartChar: nine.taboldstyle
Encoding: 65580 -1 1030
Width: 475
VWidth: 0
Flags: HMW
LayerCount: 3
Back
SplineSet
255 414 m 0
 352 414 430 328 430 210 c 0
 430 96 358 6 304 -47 c 0
 249 -101 128 -176 59 -186 c 1
 54 -186 l 2
 49 -186 45 -185 45 -181 c 8
 45 -174 52 -170 59 -168 c 0
 116 -150 232 -56 274 0 c 0
 310 48 350 114 350 227 c 0
 350 310 295 378 222 378 c 0
 157 378 126 316 126 267 c 0
 126 206 171 142 224 142 c 0
 265 142 279 156 304 168 c 0
 309 170 313 161 311 157 c 0
 304 144 289 130 278 122 c 0
 263 111 223 89 186 89 c 0
 117 89 57 143 57 215 c 0
 57 306 134 414 255 414 c 0
EndSplineSet
Fore
Refer: 55 57 N 1 0 0 1 4 0 2
Validated: 1
Substitution2: "'pnum' Proportionalziffern lookup 36 subtable" nine
Substitution2: "'lnum' Lining Figures lookup 33 subtable" nine.tablining
EndChar
StartChar: one.taboldstyle
Encoding: 65572 -1 1022
Width: 475
VWidth: 0
Flags: HMW
LayerCount: 3
Back
SplineSet
201 68 m 6
 201 333 l 6
 201 380 155 380 128 384 c 4
 118 385 119 406 128 406 c 4
 188 406 196 403 239 403 c 28
 281 403 288 406 346 406 c 4
 358 406 356 386 346 384 c 4
 318 378 276 380 275 333 c 4
 274 295 274 251 274 208 c 4
 274 150 274 95 275 68 c 4
 276 29 312 28 356 22 c 4
 364 21 368 15 368 9 c 4
 368 3 364 -3 356 -3 c 4
 299 -3 285 2 239 2 c 28
 192 2 172 -3 118 -3 c 4
 111 -3 107 4 107 11 c 4
 107 17 110 22 118 22 c 4
 145 24 201 27 201 68 c 6
EndSplineSet
Fore
Refer: 26 49 N 1 0 0 1 93 0 2
Validated: 1
Substitution2: "one_variants subtable" one.taboldstyle01
Substitution2: "'pnum' Proportionalziffern lookup 36 subtable" one
Substitution2: "'lnum' Lining Figures lookup 33 subtable" one.tablining
EndChar
StartChar: periodcentered.CATuc
Encoding: 66152 -1 2451
Width: 0
VWidth: 0
Flags: MW
LayerCount: 3
Fore
SplineSet
-81 414 m 24
 -53 414 -31 392 -31 364 c 24
 -31 336 -53 314 -81 314 c 24
 -109 314 -131 336 -131 364 c 24
 -131 392 -109 414 -81 414 c 24
EndSplineSet
Validated: 1
Substitution2: "c2sc subtable" periodcentered.CATsc
EndChar
StartChar: quoteright.01
Encoding: 66039 -1 2004
Width: 0
Flags: HMW
LayerCount: 3
Fore
SplineSet
55 595 m 0
 26 598 8 615 8 637 c 0
 8 664 34 683 63 683 c 0
 111 683 146 649 146 593 c 0
 146 492 71 458 20 456 c 0
 7 456 0 460 0 467 c 0
 0 472 5 477 14 479 c 0
 57 488 94 506 94 558 c 0
 94 574 77 593 55 595 c 0
EndSplineSet
Validated: 1
EndChar
StartChar: semicolon.subs
Encoding: 65623 -1 1136
Width: 148
VWidth: 0
Flags: HMW
LayerCount: 3
Fore
SplineSet
67 224 m 24
 89 224 106 207 106 185 c 24
 106 163 89 146 67 146 c 24
 45 146 28 163 28 185 c 24
 28 207 45 224 67 224 c 24
45 17 m 0
 26 19 24 29 24 43 c 0
 24 61 42 70 60 70 c 0
 101 70 117 46 117 12 c 0
 117 -49 64 -88 29 -88 c 0
 22 -88 14 -84 14 -77 c 0
 14 -70 21 -67 27 -66 c 0
 55 -61 70 -41 70 -9 c 0
 70 5 59 16 45 17 c 0
EndSplineSet
Validated: 1
EndChar
StartChar: u.LAT
Encoding: 66002 -1 1560
Width: 438
VWidth: 0
Flags: HMW
LayerCount: 3
Fore
SplineSet
294 378 m 0
 283 382 271 386 271 396 c 0
 271 404 284 405 291 405 c 0
 306 405 329 400 364 400 c 0
 399 400 404 405 423 405 c 0
 430 405 443 404 443 396 c 0
 443 386 431 382 420 378 c 0
 400 372 372 344 358 311 c 18
 280 123 l 2
 275 112 243 23 243 23 c 1
 243 23 221 -22 216 -22 c 0
 211 -22 199 8 196 17 c 2
 74 329 l 10
 64 353 48 372 28 378 c 0
 17 382 5 386 5 396 c 0
 5 404 18 405 25 405 c 0
 64 405 63 400 98 400 c 0
 133 400 134 405 173 405 c 0
 180 405 193 404 193 396 c 0
 193 386 181 382 170 378 c 0
 156 374 150 356 150 337 c 0
 150 328 151 318 154 310 c 2
 228 111 l 2
 233 97 235 96 240 110 c 2
 312 295 l 2
 317 308 319 320 319 331 c 0
 319 356 308 374 294 378 c 0
EndSplineSet
Validated: 1
Substitution2: "Single Substitution lookup 109 subtable" u.LATmedi
Substitution2: "Smallcaps1 subtable" v
EndChar
StartChar: uni0302.cap
Encoding: 65540 -1 928
Width: 0
VWidth: 0
Flags: HMW
AnchorPoint: "top_stack" 151 685 mark 0
AnchorPoint: "hookstack" 249 775 basemark 0
AnchorPoint: "gravestack" 61 758 basemark 0
AnchorPoint: "acutestack" 241 758 basemark 0
AnchorPoint: "top_stack" 151 830 basemark 0
AnchorPoint: "top_accent" 151 710 mark 0
LayerCount: 3
Fore
SplineSet
20 681 m 0
 11 681 5 685 5 691 c 0
 5 695 7 699 12 703 c 2
 110 786 l 2
 129 803 136 808 151 808 c 0
 166 808 173 803 192 786 c 2
 290 703 l 2
 295 699 296 695 296 691 c 0
 296 685 291 680 282 680 c 0
 269 680 187 721 161 736 c 0
 152 741 150 741 141 736 c 0
 115 721 33 681 20 681 c 0
EndSplineSet
Validated: 1
Substitution2: "c2sc subtable" uni0302
EndChar
StartChar: uni0306.cyr
Encoding: 66004 -1 1590
Width: 0
VWidth: 0
Flags: HMW
AnchorPoint: "top_accent" 125 533 mark 0
LayerCount: 3
Fore
SplineSet
127 493 m 16
 177 493 206 541 212 570 c 0
 217 593 227 595 232 595 c 0
 238 595 242 585 242 575 c 8
 242 510 187 461 121 461 c 8
 64 461 5 498 5 551 c 0
 5 584 34 600 50 600 c 0
 65 600 97 586 97 565 c 0
 97 550 72 543 72 530 c 0
 72 512 101 493 127 493 c 16
EndSplineSet
Validated: 1
Substitution2: "'case' Case-Sensitive Forms lookup 8 subtable" uni0306.cyrcap
EndChar
StartChar: uni0306.stacksc
Encoding: 66107 -1 2398
Width: 0
VWidth: 0
Flags: HMW
AnchorPoint: "top_stack" 167 465 mark 0
AnchorPoint: "hookstack" 166 565 basemark 0
AnchorPoint: "gravestack" 161 566 basemark 0
AnchorPoint: "acutestack" 172 566 basemark 0
AnchorPoint: "top_stack" 167 617 basemark 0
AnchorPoint: "top_accent" 167 553 mark 0
LayerCount: 3
Fore
SplineSet
86 562 m 0
 95 538 131 517 167 517 c 24
 204 517 241 538 250 562 c 0
 253 571 261 583 271 583 c 0
 281 583 284 572 284 559 c 0
 284 524 237 461 167 461 c 0
 97 461 50 524 50 559 c 0
 50 572 53 583 63 583 c 0
 73 583 83 571 86 562 c 0
EndSplineSet
Validated: 1
EndChar
StartChar: uni0307.cap
Encoding: 65554 -1 953
Width: 0
VWidth: 0
Flags: HMW
AnchorPoint: "top_stack" 60 725 mark 0
AnchorPoint: "top_stack" 60 830 basemark 0
AnchorPoint: "top_accent" 60 710 mark 0
LayerCount: 3
Fore
SplineSet
60 805 m 24
 90 805 115 780 115 750 c 24
 115 720 90 695 60 695 c 24
 30 695 5 720 5 750 c 24
 5 780 30 805 60 805 c 24
EndSplineSet
Validated: 1
Substitution2: "c2sc subtable" uni0307
EndChar
StartChar: uni030A.cap
Encoding: 65553 -1 952
Width: 0
VWidth: 0
Flags: HMW
AnchorPoint: "top_stack" 94 873 basemark 0
AnchorPoint: "top_accent" 94 710 mark 0
LayerCount: 3
Fore
SplineSet
92 844 m 0
 134 844 175 819 175 777 c 0
 175 730 131 700 84 700 c 0
 41 700 1 726 1 769 c 0
 1 815 46 844 92 844 c 0
43 772 m 0
 43 744 65 722 93 722 c 0
 118 722 133 747 133 772 c 0
 133 799 112 821 85 821 c 0
 59 821 43 798 43 772 c 0
EndSplineSet
Validated: 1
Substitution2: "c2sc subtable" uni030A
EndChar
StartChar: uni030C.alt1
Encoding: 65545 -1 933
Width: 0
VWidth: 0
Flags: HMW
AnchorPoint: "top_right1" 35 650 mark 0
AnchorPoint: "top_left" 22 650 mark 0
LayerCount: 3
Fore
SplineSet
17 646 m 0
 7.78059771688 653.681316394 0 662 0 675 c 0
 0 693 16 705 34 705 c 0
 63 705 79 674 79 644 c 0
 79 582 29 535 14 535 c 0
 4 535 4.28626379702e-16 536 0 543 c 0
 -4.28626379702e-16 550 8.63603896932 556.636038969 15 563 c 0
 26.313708499 574.313708499 34 591 34 611 c 0
 34 624 26.9876858067 637.678573907 17 646 c 0
EndSplineSet
Substitution2: "Single Substitution lookup 66 subtable" uni030C
EndChar
StartChar: uni0314.grkstack
Encoding: 66063 -1 2309
Width: 0
VWidth: 0
Flags: HMW
AnchorPoint: "top_stack" 65 650 basemark 0
AnchorPoint: "grk_top" 65 550 mark 0
AnchorPoint: "grk_uc_top_left" 135 665 mark 0
LayerCount: 3
Fore
SplineSet
84 560 m 0
 64 559 47 546 47 526 c 0
 47 503 67 488 96 478 c 0
 105 475 110 470 110 466 c 0
 110 461 104 456 92 456 c 0
 53 456 0 492 0 547 c 0
 0 588 33 620 73 620 c 0
 102 620 120 610 120 594 c 0
 120 572 103 561 84 560 c 0
EndSplineSet
Validated: 1
Substitution2: "Smallcaps1 subtable" uni0314.grkstacksc
EndChar
StartChar: uni0342.alt
Encoding: 66059 -1 2305
Width: 0
VWidth: 0
Flags: HMW
AnchorPoint: "top_stack" 112 521 mark 0
AnchorPoint: "grk_top" 112 533 mark 0
LayerCount: 3
Fore
SplineSet
37 498 m 0
 34 489 30 477 20 477 c 0
 10 477 5 488 5 501 c 0
 5 545 42 601 112 601 c 0
 182 601 219 546 219 501 c 0
 219 488 214 477 204 477 c 0
 194 477 190 488 187 498 c 0
 180 519 153 541 112 541 c 0
 71 541 45 519 37 498 c 0
EndSplineSet
Validated: 1
Substitution2: "Smallcaps1 subtable" uni0342.altsc
EndChar
StartChar: zero.tablining
Encoding: 65590 -1 1040
Width: 480
VWidth: 0
Flags: HMW
LayerCount: 3
Fore
SplineSet
226 602 m 0
 146 602 118 470 118 320 c 0
 118 170 162 12 252 12 c 0
 332 12 363 148 363 298 c 0
 363 448 316 602 226 602 c 0
245 630 m 0
 381 630 445 461 445 316 c 16
 445 166 383 -14 235 -14 c 0
 99 -14 35 154 35 302 c 8
 35 454 97 630 245 630 c 0
EndSplineSet
Validated: 1
Substitution2: "'pnum' Proportionalziffern lookup 36 subtable" zero.lnum
Substitution2: "'onum' Minuskelziffern lookup 34 subtable" zero.taboldstyle
EndChar
StartChar: zero.taboldstyle
Encoding: 65571 -1 1021
Width: 475
VWidth: 0
Flags: HMW
LayerCount: 3
Fore
SplineSet
234 362 m 0
 143 362 80 298 80 201 c 0
 80 116 149 46 234 46 c 0
 314 46 389 105 389 186 c 24
 389 277 327 362 234 362 c 0
238 414 m 24
 356 414 452 318 452 200 c 24
 452 82 356 -14 238 -14 c 24
 120 -14 24 82 24 200 c 24
 24 318 120 414 238 414 c 24
EndSplineSet
Validated: 1
Substitution2: "'pnum' Proportionalziffern lookup 36 subtable" zero
Substitution2: "'lnum' Lining Figures lookup 33 subtable" zero.tablining
EndChar
